<svg width="1020" height="94" viewBox="0 0 1020 94" fill="none" xmlns="http://www.w3.org/2000/svg">
<g clip-path="url(#clip0_5153_1875)">
<rect width="1512" height="7696" transform="translate(-248 -3489)" fill="#1A1A1A"/>
<g filter="url(#filter0_d_5153_1875)">
<rect x="520" y="15" width="65" height="65" rx="10" fill="#1A1A1A" shape-rendering="crispEdges"/>
<g clip-path="url(#clip1_5153_1875)">
<mask id="mask0_5153_1875" style="mask-type:alpha" maskUnits="userSpaceOnUse" x="540" y="35" width="25" height="25">
<path d="M552.5 60C559.404 60 565 54.4036 565 47.5C565 40.5964 559.404 35 552.5 35C545.596 35 540 40.5964 540 47.5C540 54.4036 545.596 60 552.5 60Z" fill="black"/>
</mask>
<g mask="url(#mask0_5153_1875)">
<path d="M552.5 60C559.404 60 565 54.4036 565 47.5C565 40.5964 559.404 35 552.5 35C545.596 35 540 40.5964 540 47.5C540 54.4036 545.596 60 552.5 60Z" fill="black"/>
<path d="M560.765 56.8778L549.603 42.5H547.5V52.4958H549.182V44.6366L559.444 57.8951C559.907 57.5853 560.348 57.2451 560.765 56.8778Z" fill="url(#paint0_linear_5153_1875)"/>
<path d="M557.639 42.5H555.973V52.5H557.639V42.5Z" fill="url(#paint1_linear_5153_1875)"/>
</g>
</g>
</g>
<g filter="url(#filter1_d_5153_1875)">
<rect x="860" y="14" width="65" height="65" rx="10" fill="#1A1A1A" shape-rendering="crispEdges"/>
<g clip-path="url(#clip2_5153_1875)">
<path d="M894 54.8334H903.25C903.545 54.8334 903.828 54.7297 904.083 54.5834C904.339 54.437 904.603 54.2534 904.75 54C904.898 53.7466 905 53.4592 905 53.1666C905 52.874 904.898 52.5867 904.75 52.3334L898.5 41.5834C898.353 41.33 898.172 41.1463 897.917 41C897.661 40.8538 897.295 40.75 897 40.75C896.705 40.75 896.422 40.8538 896.167 41C895.911 41.1463 895.731 41.33 895.583 41.5834L894 44.3334L890.833 38.9999C890.686 38.7465 890.506 38.4796 890.25 38.3334C889.994 38.1871 889.712 38.1667 889.417 38.1667C889.122 38.1667 888.839 38.1871 888.583 38.3334C888.328 38.4796 888.064 38.7465 887.917 38.9999L880.167 52.3334C880.019 52.5866 880 52.8739 880 53.1665C880 53.4591 880.019 53.7465 880.167 53.9999C880.314 54.2533 880.578 54.4369 880.833 54.5833C881.089 54.7296 881.372 54.8333 881.667 54.8333H887.5C889.811 54.8333 891.494 53.7964 892.667 51.8333L895.5 46.9166L897 44.3333L901.583 52.1666H895.5L894 54.8333V54.8334ZM887.417 52.1667H883.333L889.417 41.6667L892.5 46.9167L890.458 50.4771C889.679 51.7509 888.791 52.1667 887.417 52.1667Z" fill="#00DC82"/>
</g>
</g>
<g filter="url(#filter2_d_5153_1875)">
<rect x="265" y="14" width="65" height="65" rx="10" fill="#1A1A1A" shape-rendering="crispEdges"/>
<path d="M295.329 34.3174C295.946 33.9641 296.75 33.9625 297.366 34.3174C300.469 36.0704 303.572 37.8207 306.674 39.5747C307.257 39.9034 307.648 40.5527 307.642 41.2249V51.7717C307.646 52.4718 307.217 53.1366 306.602 53.4578C303.51 55.2012 300.419 56.9466 297.327 58.69C296.697 59.0502 295.877 59.0224 295.267 58.6327C294.34 58.0953 293.411 57.5605 292.484 57.0237C292.295 56.9107 292.081 56.8208 291.947 56.6371C292.066 56.4777 292.277 56.4579 292.449 56.3883C292.836 56.2652 293.191 56.0677 293.547 55.8761C293.637 55.8145 293.746 55.8381 293.833 55.8932C294.625 56.3477 295.411 56.8154 296.206 57.2656C296.376 57.3636 296.548 57.2335 296.693 57.1527C299.727 55.4377 302.765 53.7292 305.799 52.0137C305.912 51.9596 305.974 51.8402 305.965 51.7171C305.967 48.2379 305.965 44.7582 305.966 41.279C305.979 41.1393 305.898 41.0108 305.772 40.9536C302.69 39.2183 299.61 37.4802 296.529 35.7444C296.476 35.7077 296.413 35.688 296.348 35.6879C296.283 35.6878 296.22 35.7073 296.166 35.7439C293.085 37.4802 290.006 39.2199 286.925 40.9551C286.799 41.0124 286.715 41.1387 286.73 41.279C286.73 44.7582 286.73 48.2379 286.73 51.7176C286.724 51.7777 286.738 51.838 286.767 51.8904C286.797 51.9427 286.843 51.9846 286.897 52.0105C287.719 52.4767 288.543 52.9396 289.365 53.4043C289.829 53.6537 290.398 53.802 290.908 53.6108C291.359 53.4492 291.675 52.9894 291.666 52.5109C291.671 49.052 291.664 45.5926 291.67 42.1343C291.658 41.9808 291.804 41.8539 291.953 41.8684C292.348 41.8657 292.744 41.863 293.139 41.8694C293.304 41.8657 293.417 42.031 293.397 42.1857C293.395 45.6665 293.401 49.1473 293.394 52.6281C293.395 53.5558 293.014 54.5652 292.156 55.0191C291.099 55.5667 289.792 55.4505 288.748 54.9254C287.844 54.4742 286.981 53.9417 286.093 53.4582C285.476 53.1388 285.049 52.4714 285.054 51.7718V41.2249C285.047 40.5387 285.453 39.8777 286.055 39.5538C289.146 37.809 292.237 36.0629 295.329 34.3174Z" fill="#8CC84B"/>
<path d="M298.026 41.6232C299.374 41.5365 300.818 41.5718 302.031 42.2361C302.97 42.7451 303.491 43.8135 303.508 44.8572C303.482 44.998 303.334 45.0756 303.2 45.066C302.809 45.0654 302.418 45.0713 302.026 45.0633C301.86 45.0697 301.764 44.9167 301.743 44.77C301.631 44.2706 301.358 43.776 300.888 43.5351C300.167 43.1739 299.33 43.192 298.543 43.1996C297.969 43.2301 297.351 43.2798 296.865 43.6176C296.491 43.8734 296.378 44.3899 296.511 44.8059C296.637 45.1045 296.981 45.2009 297.264 45.2897C298.889 45.7147 300.611 45.6724 302.204 46.2318C302.864 46.4598 303.51 46.903 303.736 47.594C304.031 48.5201 303.902 49.627 303.243 50.3704C302.709 50.9822 301.93 51.3152 301.154 51.496C300.122 51.7263 299.05 51.7321 298.002 51.6299C297.016 51.5175 295.99 51.2584 295.228 50.5866C294.578 50.0215 294.26 49.1409 294.291 48.291C294.299 48.1474 294.442 48.0474 294.579 48.0591C294.973 48.056 295.367 48.0549 295.761 48.0597C295.918 48.0484 296.035 48.1844 296.043 48.3327C296.116 48.8085 296.295 49.3079 296.71 49.59C297.51 50.1066 298.515 50.0712 299.432 50.0857C300.191 50.052 301.044 50.0418 301.664 49.5397C301.991 49.2534 302.088 48.7743 301.999 48.3622C301.904 48.0142 301.54 47.8521 301.227 47.746C299.623 47.2386 297.882 47.4227 296.293 46.8489C295.648 46.6209 295.024 46.19 294.777 45.5274C294.431 44.5896 294.589 43.4297 295.317 42.7114C296.027 41.9968 297.052 41.7217 298.026 41.6232Z" fill="#8CC84B"/>
</g>
<g filter="url(#filter3_d_5153_1875)">
<rect x="605" y="14" width="65" height="65" rx="10" fill="#1A1A1A" shape-rendering="crispEdges"/>
<path d="M633.679 53.6543C632.853 53.0039 631.972 52.3809 631.369 51.5039C630.101 49.957 629.125 48.1641 628.459 46.2813C628.054 45.0566 627.918 43.7441 627.396 42.5664C626.853 41.7109 627.49 40.7773 628.425 40.5059C628.841 40.4258 629.576 40.0313 628.691 40.3145C627.898 40.8965 627.822 39.7852 628.634 39.7148C629.189 39.6406 629.394 39.1875 629.205 38.7773C628.609 38.3887 630.65 37.9609 629.623 37.3809C628.552 36.2266 631.119 36.0039 630.486 37.3164C630.336 38.3242 632.279 37.1309 631.828 38.2949C632.287 38.8535 633.547 38.4219 633.513 39.207C634.181 39.2539 634.412 39.8145 635.037 39.8574C635.687 40.1504 636.865 40.3828 637.086 41.1152C636.441 41.625 634.947 40.0606 634.877 41.4746C635.072 43.5625 635.021 45.7129 635.785 47.7012C636.146 48.9043 637.021 49.8516 637.812 50.7891C638.57 51.707 639.593 52.3535 640.64 52.8984C641.556 53.3301 642.545 53.6172 643.545 53.7969C643.949 53.4863 644.666 52.3359 645.297 52.8203C645.328 53.3672 644.043 53.9609 645.236 53.9023C645.937 53.6914 646.423 54.4434 647.002 53.7637C647.533 54.3945 649.213 53.3613 648.834 54.6484C648.322 54.9785 647.576 54.7793 647.062 55.2344C646.216 54.8125 645.545 55.6113 644.609 55.5117C643.57 55.6973 642.513 55.7734 641.459 55.7734C639.73 55.6367 637.964 55.5801 636.322 54.9785C635.396 54.709 634.492 54.1816 633.679 53.6543ZM635.138 54.2871C636.043 54.6777 636.927 55.0898 637.918 55.2148C639.49 55.4336 641.115 55.7695 642.693 55.4629C641.978 55.1406 641.24 55.5879 640.529 55.2324C639.675 55.416 638.759 55.1856 637.892 55.0723C636.906 54.6328 635.841 54.3301 634.918 53.7598C633.763 53.3379 635.515 54.3008 635.826 54.3789C636.547 54.7891 635.033 54.168 634.818 53.9981C634.214 53.6582 634.136 53.7305 634.757 54.0742C634.882 54.1465 635.007 54.2246 635.138 54.2871ZM633.418 53.0703C634.295 53.3945 633.414 52.4531 633.013 52.5078C632.836 52.1992 632.334 52.0039 632.687 51.8379C632.05 52.0586 632.019 50.9981 631.72 51.1484C631.047 50.9356 631.459 50.1816 630.656 49.7188C630.584 49.2305 629.859 48.8086 629.629 48.0723C629.527 47.6953 628.81 46.6152 629.25 47.6211C629.625 48.5898 630.283 49.4199 630.832 50.2481C631.257 51.0371 631.761 51.8613 632.535 52.3535C632.797 52.6074 633.048 52.9922 633.418 53.0703ZM630.892 50.2988C631.052 50.584 630.923 50.166 630.892 50.2988ZM634.466 53.459C634.662 53.3731 634.187 53.3496 634.466 53.459ZM634.943 53.6328C634.894 53.3926 634.726 53.7676 634.943 53.6328ZM635.539 53.8809C635.822 53.6113 635.101 53.7109 635.539 53.8809ZM636.558 54.4492C636.732 54.1953 636.007 54.3535 636.558 54.4492ZM634.599 53.084C635.039 52.7988 634.031 53.0801 634.599 53.084ZM635.047 53.3066C635.033 53.1563 634.886 53.3731 635.047 53.3066ZM637.279 54.6992C637.638 54.9258 639.375 55.1953 638.287 54.793C638.105 54.832 636.269 54.2734 637.279 54.6992ZM633.734 51.9395C633.699 51.7891 633.177 51.7734 633.734 51.9395ZM634.773 52.5449C635.045 52.3574 634.213 52.4004 634.773 52.5449ZM635.648 53.082C636.035 52.9356 635.017 52.9356 635.648 53.082ZM633.31 51.4785C633.732 51.8008 635.009 51.5195 633.955 51.2852C633.476 51.0293 632.394 50.8555 633.131 51.4395L633.31 51.4785ZM636.24 53.2676C636.416 52.9688 635.504 53.0957 636.24 53.2676ZM635.349 52.5586C636.379 52.8496 634.484 51.9063 635.095 52.4512L635.232 52.5137L635.349 52.5586ZM637.134 53.5898C638.109 53.5996 636.254 53.457 637.134 53.5898ZM632.935 50.9141C632.898 50.7324 632.695 50.9297 632.935 50.9141ZM638.783 54.5156C638.81 54.1875 638.466 54.7598 638.783 54.5156ZM634.599 51.9336C634.541 51.7617 634.295 51.9258 634.599 51.9336ZM633.029 50.8008C633.588 50.7676 632.261 50.5547 633.029 50.8008ZM631.166 49.5977C631.095 49.3281 630.556 49.1152 631.166 49.5977ZM636.054 52.6992C636.006 52.7246 635.953 52.582 636.054 52.6992ZM639.097 54.5664C639.088 54.3887 638.931 54.6348 639.097 54.5664ZM635.785 52.4219C635.839 52.1914 635.308 52.3516 635.785 52.4219ZM633.519 50.9844C633.935 50.9395 632.851 50.7031 633.519 50.9844ZM637.353 53.3672C638.002 53.1094 636.72 53.2422 637.353 53.3672ZM635.359 52.0137C636.107 52.1094 634.468 51.5039 635.195 51.959L635.359 52.0137ZM637.959 53.6133C638.658 53.1953 638.427 54.5918 639.144 53.7305C639.851 53.2148 638.533 54.3691 639.404 53.8223C640.035 53.4004 640.964 54.0215 641.552 54.2246C641.974 54.2031 642.386 54.5898 642.82 54.3555C643.654 54.1309 641.187 54.0215 641.834 53.6231C641.07 53.8457 640.506 53.3574 640.131 52.8691C639.273 52.6719 638.283 52.2344 637.855 51.4746C637.681 51.1895 638.107 51.5156 637.705 51.0488C637.189 50.5898 636.931 50.0684 636.586 49.5098C636.172 49.2891 636.123 48.6387 636.082 49.4883C636.086 48.9531 635.582 48.5918 635.459 48.7422C635.457 48.2266 635.998 48.4844 635.619 48.1035C635.537 47.5684 635.269 47.0117 635.189 46.4082C635.064 46.1172 635.172 45.4941 634.761 46.1523C634.613 46.8496 634.713 45.2969 634.945 45.8086C635.25 45.2871 634.836 45.3477 634.818 45.4199C635.017 44.9785 634.943 44.3535 634.765 44.5918C634.871 44.125 634.933 42.8731 634.607 43.0957C634.804 42.6074 634.982 40.8613 634.125 41.5273C633.777 41.5332 633.177 41.6523 632.892 41.7949C633.783 42.2852 632.802 41.9727 632.439 41.8945C632.392 42.3496 632.033 42.1523 631.584 42.1563C632.3 42.2441 631.234 42.8887 630.824 42.6387C630.289 42.8945 631.285 43.5313 630.834 43.7285C630.888 44.0254 630.015 43.6211 630.084 44.3066C629.566 44.0879 630.013 45.1191 630.271 44.7715C631.152 45.0098 630.892 45.5547 630.914 46.0703C630.769 46.3711 630.205 45.3633 630.789 45.4102C630.328 44.6621 630.279 45.1406 629.898 45.4863C629.81 45.5117 630.873 45.9805 630.205 46.2129C630.793 46.3047 630.81 46.8184 630.929 47.1426C631.283 47.5098 631.211 46.7363 631.632 47.1777C631.365 46.7832 630.216 46.0684 631.14 46.2969C631.134 45.9004 630.972 45.5801 631.257 45.5879C631.539 45.0801 630.963 46.8418 631.595 46.1953C631.771 46.1191 631.814 45.6875 632.129 46.2363C632.586 46.6856 632.295 47.0117 631.648 46.5996C631.763 46.9922 632.511 47.1309 632.371 47.7441C632.519 48.2832 632.728 48.084 632.91 48.0527C633.052 48.5762 633.132 48.1914 633.14 47.9414C633.793 48.082 633.64 48.4668 633.843 48.7363C634.293 48.9395 633.201 47.3613 633.972 48.2617C634.785 48.9941 634.277 49.3008 633.548 49.1836C634.009 49.1465 634.158 49.8066 634.734 49.7832C635.259 50.0332 635.617 50.9941 634.711 50.5938C634.396 50.3106 633.283 49.9609 634.193 50.5C635.033 50.8887 635.699 51.1211 636.509 51.6094C637.088 52.0234 637.339 52.4961 637.558 52.5898C637.072 52.8223 636.091 52.4043 636.82 52.2754C636.365 52.1934 635.855 51.9629 636.291 52.5293C636.66 52.8379 637.601 52.8066 637.771 52.8398C637.629 53.1543 637.382 53.1797 637.777 53.2031C637.338 53.4414 637.918 53.4785 637.959 53.6133ZM637.06 51.0742C636.793 50.7949 636.724 50.2715 637.013 50.7266C637.16 50.7852 637.488 51.582 637.06 51.0742ZM639.988 52.9336C640.154 52.9219 639.992 53.0606 639.988 52.9336ZM636.638 50.3887C636.734 50.7149 636.627 49.9648 636.638 50.3887ZM636.347 49.9961C636.771 50.1816 636.009 49.3477 636.347 49.9961ZM632.82 47.5625C633.017 47.5098 632.918 47.9004 632.82 47.5625ZM635.627 49.084C635.769 49.4668 635.748 48.6289 635.627 49.084ZM633.644 47.7051C633.937 47.9414 633.506 47.4531 633.644 47.7051ZM635.345 48.25C635.027 47.5371 635.572 47.8594 635.416 48.3672L635.345 48.25ZM632.412 46.2949C632.269 46.0606 632.035 45.3731 632.109 45.1641C632.177 45.5059 632.836 46.6348 632.431 45.6309C631.986 44.791 632.964 45.9043 633.066 46.1133C633.113 46.3223 632.791 46.0566 633.009 46.5449C632.611 45.9883 632.775 46.8535 632.412 46.2949ZM631.506 45.6699C631.713 46.043 631.543 45.125 631.506 45.6699ZM631.912 45.8106C632.242 46.3828 632.107 45.3984 631.912 45.8106ZM630.931 45.0508C630.593 44.7148 630.349 44.4063 630.947 44.8418C631.177 44.8516 630.435 44.1387 631.002 44.6152C631.599 44.7246 631.297 45.5938 630.931 45.0508ZM631.447 45.0371C631.642 44.8438 631.55 45.2285 631.447 45.0371ZM631.763 45.1387C632.125 45.3731 631.466 44.582 631.763 45.1387ZM631.134 44.5371C630.154 43.6641 632.367 44.9941 631.295 44.6992L631.134 44.5371ZM633.945 46.1699C633.519 45.916 633.832 44.377 633.976 45.4297C634.388 45.2969 633.953 45.9727 634.261 45.9668C634.214 46.3926 634.076 46.5469 633.945 46.1699ZM634.986 46.7852C635.074 47.1016 635.027 46.3203 634.986 46.7852ZM634.804 46.6055C634.851 46.4082 634.81 46.8398 634.804 46.6055ZM631.326 44.25C630.695 43.3809 633.158 45.1309 631.73 44.4707C631.58 44.4297 631.4 44.416 631.326 44.25ZM633.33 45.3106C633.463 45.4316 633.269 44.5781 633.33 45.3106ZM634.849 46.2871C634.966 45.8691 634.859 46.5625 634.849 46.2871ZM631.423 43.918C631.798 43.8379 632.976 44.5762 631.894 44.1289C631.773 43.9941 631.517 44.0547 631.423 43.918ZM634.64 45.5215C634.679 44.7715 634.865 45.0742 634.642 45.6289L634.64 45.5215ZM631.701 43.6563C631.853 43.4316 631.295 42.6445 631.781 43.3731C631.992 43.5391 632.388 43.6523 632.037 43.7227C632.591 44.2109 631.904 43.8555 631.701 43.6563ZM634.482 45.2871C634.588 44.4336 634.574 45.7871 634.482 45.2871ZM631.382 42.8691C631.5 42.8184 631.445 43.0234 631.382 42.8691ZM632.107 43.3008C632.453 43.7363 632.295 42.9082 632.107 43.3008ZM634.152 44.4375C634.191 44.6563 634.152 44.2871 634.152 44.4375ZM634.035 44.1758C634.298 44.5469 633.752 43.4746 634.035 44.1758ZM633.861 43.7168C634.023 44.0801 633.812 43.4277 633.861 43.7168ZM634.144 43.2559C633.949 42.9121 634.39 41.7422 634.439 42.4688C634.234 43.0332 634.381 43.3496 634.523 42.5918C634.789 41.9941 634.466 43.7676 634.144 43.2559ZM634.435 41.5156C634.521 41.4121 634.455 41.6426 634.435 41.5156ZM633.949 51.1094C633.963 51.1738 633.834 51.0078 633.949 51.1094ZM634.951 51.6172C635.509 51.7617 635.506 51.5313 635.002 51.4629C634.73 51.2109 633.875 50.9434 634.64 51.4316C634.693 51.5586 634.853 51.5547 634.951 51.6172ZM632.97 50.3008C633.277 50.5313 634.129 50.9492 633.408 50.3887C633.65 50.1074 632.943 49.957 633.177 49.7676C632.58 49.4023 632.707 49.4356 633.125 49.4473C632.408 49.127 633.228 49.1504 633.189 48.9863C632.912 48.9316 631.816 48.4981 632.461 49.0215C631.804 48.6875 632.304 49.1465 632.105 49.0977C631.433 48.9141 632.703 49.6094 632 49.4356C632.384 49.7402 633.035 50.2168 632.162 49.7578C632.05 49.9238 632.789 50.1758 632.97 50.3008ZM634.019 50.9043C635.295 51.3145 633.394 50.4004 634.019 50.9043ZM639.39 54.1563C639.406 53.9023 639.214 54.3731 639.39 54.1563ZM639.941 54.3887C640.236 54.1035 639.953 54.8438 640.429 54.3184C640.435 53.9434 640.416 53.7207 639.882 54.1777C639.736 54.2598 639.67 54.6055 639.941 54.3887ZM631.181 48.8867C631.089 48.5313 630.547 48.5332 631.181 48.8867ZM631.769 49.2734C631.55 48.9102 630.988 48.9453 631.769 49.2734ZM635.123 51.2949C635.451 51.5859 636.627 51.5078 635.519 51.3301C635.357 51.0879 634.48 51.1465 635.123 51.2949ZM639.732 54.1406C640.234 53.7188 639.244 54.3301 639.732 54.1406ZM640.779 54.8613C640.783 54.7266 640.562 54.9199 640.779 54.8613ZM640.781 54.6719C641.339 54.0801 640.24 54.707 640.781 54.6719ZM629.73 47.6738C629.256 46.9961 629.435 46.6914 628.976 46.1367C628.888 45.7129 628.189 44.752 628.615 45.7695C629.004 46.3652 629.119 47.2871 629.73 47.6738ZM640.605 54.4844C641.632 53.8203 640.185 54.1953 640.605 54.4844ZM641.388 54.791C641.904 54.3496 641.064 54.6992 641.388 54.791ZM631.006 48.1367C631.154 47.918 630.627 48.1094 631.006 48.1367ZM641.226 54.5801C641.724 54.2598 641.111 54.3086 641.136 54.6094L641.226 54.5801ZM634.472 50.3242C634.455 50.1074 634.209 50.3418 634.472 50.3242ZM634.89 50.5645C634.756 50.2949 634.685 50.6055 634.89 50.5645ZM642.025 54.7969C642.664 54.3359 641.638 54.709 641.892 54.8848L642.025 54.7969ZM641.779 54.6797C642.3 54.2441 641.232 54.8731 641.779 54.6797ZM643.027 55.5098C643.377 55.2773 642.603 55.4356 643.027 55.5098ZM631.326 47.9785C631.793 48.084 633.193 49.1289 632.367 48.0508C631.943 47.9258 632.197 46.8906 631.765 47.0742C632.054 47.5586 632.004 47.7637 631.394 47.459C630.631 47.0859 630.964 47.6426 631.115 47.7969C630.912 47.8457 631.386 47.9746 631.326 47.9785ZM629.197 46.2969C629.281 45.9512 628.425 44.3926 628.793 45.5156C628.925 45.752 628.912 46.1973 629.197 46.2969ZM633.105 48.707C633.093 48.6777 632.865 48.5059 633.105 48.707ZM633.697 48.8457C633.697 48.4785 633.043 48.6953 633.697 48.8457ZM638.834 52.082C638.736 51.832 638.447 52.0781 638.834 52.082ZM639.08 52.2637C639.045 52.1231 638.939 52.291 639.08 52.2637ZM641.117 53.5449C641.312 53.4004 640.873 53.5273 641.117 53.5449ZM630.259 46.5684C630.82 46.3516 629.66 46.4141 630.259 46.5684ZM638.382 51.6856C638.375 51.3223 638.025 51.7754 638.382 51.6856ZM630.039 46.0527C630.398 45.9316 629.705 45.9727 630.039 46.0527ZM631.082 46.5586C631.076 46.4395 630.972 46.6035 631.082 46.5586ZM643.82 54.3691C644.283 54.2754 645.338 54.6055 645.507 54.2461C644.945 54.2324 643.564 53.8496 643.5 54.3359L643.623 54.3555L643.82 54.3691ZM631.414 46.6426C631.423 46.2754 631.129 46.6289 631.414 46.6426ZM628.67 44.7383C628.545 44.0391 628.195 44.6328 628.67 44.7383ZM629.324 44.9023C629.332 44.6777 628.724 44.7012 629.324 44.9023ZM629.697 45.0859C629.613 45.1973 629.589 45 629.697 45.0859ZM632.052 46.5957C632.164 46.4941 631.789 46.5215 632.052 46.5957ZM629.449 44.6719C629.384 44.1426 628.691 44.5938 629.449 44.6719ZM628.107 43.8008C628.088 43.5566 627.976 43.8926 628.107 43.8008ZM628.306 43.6504C628.273 43.3613 628.134 43.6875 628.306 43.6504ZM629.41 44.3086C629.877 44.125 628.56 43.9297 629.314 44.2734L629.41 44.3086ZM644.173 53.4277C644.472 53.1543 643.795 53.3438 644.173 53.4277ZM645.957 54.3535C646.076 54 645.656 54.3984 645.957 54.3535ZM629.521 43.7305C629.572 43.3887 629.152 43.7988 629.521 43.7305ZM627.953 42.6797C627.869 42.1973 627.881 41.3477 628.687 41.6348C627.611 41.8496 629.433 42.9727 629.203 42.0859C629.656 42.1074 630.088 41.8184 629.851 42.2578C630.744 42.1602 631.361 41.3867 632.222 41.4941C632.894 41.4043 633.627 41.3379 634.349 41.0684C634.943 41.0254 635.515 40.3848 635.191 40.0059C634.381 39.9375 633.531 40.0391 632.636 40.2168C631.644 40.4238 630.742 40.8145 629.74 40.9844C628.763 41.1152 629.935 41.3457 629.656 41.3965C629.146 41.5723 630.263 41.6934 629.589 41.8789C629.173 41.7988 628.74 41.6563 628.918 41.2188C627.982 41.3398 627.16 41.7285 627.9 42.6797H627.953ZM630.207 41.5313C630.425 40.7227 631.381 42.1953 630.566 41.6387C630.468 41.5645 630.308 41.5059 630.207 41.5313ZM630.25 41.1387C630.566 40.9043 630.418 41.2715 630.25 41.1387ZM630.652 41.1465C630.681 40.7754 631.572 41.3438 630.798 41.2793L630.652 41.1465ZM631.201 40.9238C631.402 40.6895 631.259 41.1328 631.201 40.9238ZM631.341 40.8301C631.675 40.4277 633.234 40.5742 632.093 40.791C631.789 40.5606 631.554 40.9277 631.341 40.8301ZM633.377 40.5176C634.388 40.9063 633.326 39.4199 633.377 40.5176ZM633.955 40.5137C634.166 39.9609 634.775 40.291 634.052 40.4023C634.068 40.4609 634.031 40.6875 633.955 40.5137ZM629.295 43.4473C629.925 43.0606 628.625 43.1113 629.295 43.4473ZM629.761 43.5762C629.982 43.3418 629.281 43.4805 629.761 43.5762ZM628.386 42.6016C628.748 42.3242 627.961 42.4961 628.386 42.6016ZM647.009 54.252C647.019 53.9297 646.734 54.3965 647.009 54.252ZM645.117 52.9609C645.172 52.5898 644.875 52.9922 645.117 52.9609ZM647.531 54.377C648.035 54.3789 649.058 54.2207 647.961 54.2207C647.789 54.2461 646.959 54.2422 647.531 54.377ZM630.172 43.3496C630.58 43.3223 630.81 42.9004 630.091 42.9238C628.98 42.8086 631.072 43.3047 629.949 43.1621C629.798 43.2617 630.162 43.377 630.172 43.3496ZM630.531 43.5313C630.488 43.2695 630.404 43.6699 630.531 43.5313ZM630.957 42.3945C631.132 42.1758 630.711 42.3359 630.957 42.3945ZM629.599 40.1289C630.328 39.8809 631.322 39.6035 631.666 40.25C631.316 39.8301 631.525 39.4141 631.855 40.0313C632.322 40.6543 632.556 39.7481 632.252 39.5391C632.597 39.9688 632.992 40.1719 632.484 39.5664C633.037 38.9023 631.379 39.6543 631.002 39.6465C630.822 39.7266 629.131 40.0762 629.599 40.1289ZM630.027 39.3125C630.443 39 631.463 39.5 630.808 39.002C630.744 38.9434 629.373 39.3789 630.027 39.3125ZM631.541 39.375C632.027 39.3867 631.332 38.7227 631.91 39.0234C631.814 38.7129 631.236 38.6543 630.953 38.5313C630.793 38.8145 631.277 39.3789 631.541 39.375ZM630.293 38C630.461 37.7734 629.998 38.1172 630.293 38ZM630.91 38.1484C631.693 38.0449 630.711 37.8125 630.752 38.1406L630.91 38.1484ZM629.756 37.2461C629.205 36.5254 630.793 37.3672 630.232 36.6133C629.761 36.2383 629.308 37.0352 629.756 37.2461ZM636.828 41.0547C637.08 40.6074 635.785 40.4512 636.658 40.8965C636.74 40.9238 636.72 41.0859 636.828 41.0547Z" fill="black"/>
</g>
<g filter="url(#filter4_d_5153_1875)">
<rect x="435" y="15" width="65" height="65" rx="10" fill="#1A1A1A" shape-rendering="crispEdges"/>
<g clip-path="url(#clip3_5153_1875)">
<path fill-rule="evenodd" clip-rule="evenodd" d="M454.126 41.4423H456.041V50.2199C455.06 50.4057 454.338 50.4787 453.557 50.4787C451.218 50.476 450 49.4311 450 47.4243C450 45.4905 451.292 44.2356 453.293 44.2356C453.604 44.2356 453.84 44.2598 454.126 44.3332V41.4423ZM454.126 45.8591C453.902 45.786 453.717 45.7615 453.48 45.7615C452.512 45.7615 451.952 46.3524 451.952 47.3879C451.952 48.3959 452.487 48.9529 453.468 48.9529C453.68 48.9529 453.852 48.9407 454.126 48.9041V45.8591ZM459.085 44.3702V48.7651C459.085 50.2785 458.972 51.0064 458.639 51.6337C458.329 52.2371 457.919 52.6174 457.074 53.0378L455.297 52.2001C456.142 51.8074 456.551 51.4604 456.813 50.9304C457.086 50.3885 457.173 49.7612 457.173 48.1105V44.3702H459.085ZM457.173 41.4521H459.088V43.3979H457.173V41.4524V41.4521ZM460.241 44.802C461.087 44.4089 461.895 44.2356 462.777 44.2356C463.761 44.2356 464.406 44.4944 464.693 44.9995C464.853 45.2829 464.905 45.6517 464.905 46.4403V50.293C464.047 50.4151 462.965 50.503 462.171 50.503C460.566 50.503 459.846 49.9487 459.846 48.7183C459.846 47.3876 460.803 46.7724 463.152 46.5769V46.1592C463.152 45.815 462.977 45.6904 462.494 45.6904C461.786 45.6904 460.99 45.8883 460.244 46.2693L460.241 44.802ZM463.238 47.8174C461.971 47.9392 461.56 48.1371 461.56 48.6301C461.56 48.9993 461.796 49.1723 462.319 49.1723C462.605 49.1723 462.866 49.148 463.238 49.0868V47.817L463.238 47.8174ZM465.836 44.6654C466.968 44.3699 467.899 44.2356 468.843 44.2356C469.824 44.2356 470.534 44.4577 470.955 44.8875C471.352 45.2927 471.478 45.7372 471.478 46.6846V50.403H469.563V46.7596C469.563 46.032 469.314 45.7611 468.631 45.7611C468.37 45.7611 468.133 45.7857 467.749 45.8978V50.403H465.836V44.6654ZM472.223 51.4375C472.893 51.7818 473.563 51.9406 474.273 51.9406C475.528 51.9406 476.063 51.4355 476.063 50.2293V50.1923C475.69 50.3757 475.315 50.4515 474.82 50.4515C473.142 50.4515 472.075 49.3554 472.075 47.6195C472.075 45.4636 473.655 44.245 476.45 44.245C477.271 44.245 478.03 44.3305 478.949 44.5163L478.293 45.8836C477.783 45.786 478.251 45.8688 477.867 45.8321V46.03L477.892 46.831L477.904 47.8662C477.916 48.1253 477.916 48.3834 477.929 48.6426V49.1598C477.929 50.786 477.791 51.5479 477.381 52.1779C476.785 53.1007 475.753 53.5574 474.285 53.5574C473.539 53.5574 472.893 53.4473 472.222 53.1882L472.223 51.4375ZM476.026 45.7736H475.826C475.454 45.7611 475.018 45.8587 474.719 46.0445C474.261 46.3033 474.024 46.7721 474.024 47.4361C474.024 48.3831 474.498 48.9256 475.343 48.9256C475.604 48.9256 475.817 48.8768 476.063 48.8034V48.1489C476.063 47.9267 476.05 47.6804 476.05 47.4213L476.038 46.5473L476.026 45.92V45.7732L476.026 45.7736ZM481.919 44.2107C483.832 44.2107 485 45.4047 485 47.3385C485 49.3207 483.783 50.5635 481.842 50.5635C479.927 50.5635 478.746 49.3698 478.746 47.4485C478.749 45.4535 479.967 44.211 481.919 44.211V44.2107ZM481.88 49.035C482.614 49.035 483.048 48.4322 483.048 47.3849C483.048 46.3497 482.626 45.7342 481.892 45.7342C481.133 45.7342 480.699 46.3373 480.699 47.3849C480.699 48.4322 481.135 49.035 481.88 49.035Z" fill="#44B78B"/>
</g>
</g>
<g filter="url(#filter5_d_5153_1875)">
<rect x="95" y="15" width="65" height="65" rx="10" fill="#1A1A1A" shape-rendering="crispEdges"/>
<path d="M144.77 47.394V49.0028H141.915V49.7456H143.356C144.127 49.7456 144.949 50.319 144.998 51.2969L145 51.3896V52.0088C144.966 53.1854 144.005 53.6278 143.407 53.6516L143.356 53.6532H140.465V52.0526L143.391 52.0436V51.2656H142.925L142.79 51.2664H142.707L142.689 51.2668H142.668L142.661 51.2676H142.675L142.695 51.2684H142.736L142.767 51.2691H142.706L142.029 51.2656C141.335 51.2656 140.433 50.7419 140.379 49.7186L140.376 49.6212V49.0642C140.376 48.0089 141.268 47.4281 141.967 47.3948L142.029 47.3936L144.77 47.394ZM137.459 47.394V52.035H139.872V53.6532H135.673V47.394H137.459ZM134.939 47.394V53.6532H133.145V47.394H134.939ZM130.714 47.394C131.127 47.394 132.297 47.6796 132.356 48.9391L132.358 49.038V53.6532H130.687V52.5478H129.069V53.6532H127.345V49.038C127.345 48.5225 127.738 47.4554 128.889 47.3964L128.989 47.394H130.714ZM121.269 47.3929H124.625C124.695 47.4007 126.484 47.6158 126.484 49.5614C126.484 51.507 125.007 51.6716 124.949 51.6775H124.947L126.905 53.6524H124.412L122.954 52.1426V53.6524H121.268L121.269 47.3929ZM130.037 46.3379L130.051 46.3508C130.051 46.3508 129.9 46.4564 129.741 46.5894C124.72 42.8763 121.652 44.6266 120.688 45.0952C116.312 47.5372 117.577 53.5315 117.602 53.6512L117.603 53.6532H110.619C110.619 53.6532 110.884 51.0364 112.741 47.942C114.597 44.8476 117.762 42.5047 120.334 42.2751C125.295 41.7783 129.766 46.0719 130.037 46.3379ZM117.868 51.8844L118.823 52.2294C118.867 52.5756 118.93 52.9034 118.996 53.2026L119.035 53.3786L117.974 52.9984C117.916 52.6296 117.88 52.2576 117.868 51.8844ZM130.192 48.8874H129.6C129.158 48.8874 129.078 49.1182 129.064 49.2023L129.061 49.2242V50.7618H130.678V49.2297C130.676 49.1984 130.646 48.8874 130.192 48.8874ZM110.442 49.0204L111.459 49.3916C111.335 49.6776 111.177 50.0448 111.063 50.3339L111.017 50.4524L110 50.0808C110.088 49.8422 110.274 49.4002 110.442 49.02V49.0204ZM124.306 48.9641H122.954V50.3953H124.298C124.298 50.3953 124.684 50.2459 124.684 49.6752C124.684 49.1045 124.306 48.9641 124.306 48.9641ZM118.266 48.6668L118.903 49.1702C118.832 49.4464 118.778 49.7218 118.741 49.9979L118.717 50.2048L118.001 49.6388C118.071 49.3208 118.151 48.9938 118.266 48.6668ZM119.831 46.1998L120.229 46.801C120.073 46.9638 119.929 47.1265 119.8 47.2982L119.707 47.4288L119.283 46.7924C119.442 46.589 119.627 46.3856 119.831 46.1998ZM113.501 44.8918L114.129 45.4402C113.969 45.6072 113.816 45.7805 113.67 45.9597L113.527 46.1384L112.847 45.5548C113.05 45.3338 113.271 45.1128 113.501 44.8918ZM122.262 44.8566L122.457 45.4402C122.247 45.5062 122.041 45.5853 121.841 45.6773L121.687 45.7496L121.484 45.1394C121.737 45.0285 121.997 44.934 122.262 44.8566ZM124.331 44.6442C124.557 44.6587 124.789 44.6841 125.027 44.7252L125.206 44.7592L125.171 45.3076C124.94 45.2584 124.706 45.2258 124.471 45.2098L124.295 45.2012L124.331 44.6442ZM117.072 42.2043L117.47 42.8145C117.298 42.9005 117.131 42.9967 116.96 43.0992L116.79 43.2033L116.383 42.5845C116.621 42.4433 116.851 42.3193 117.072 42.2043ZM124.349 41.8683C124.874 42.0189 125.101 42.1217 125.191 42.1698L125.206 42.1777L125.171 42.7703C124.983 42.6936 124.793 42.6209 124.602 42.552L124.313 42.4519L124.349 41.8683ZM120.971 41.3469L121.148 41.8863H121.06C120.867 41.8863 120.675 41.891 120.483 41.9046L120.29 41.9215L120.122 41.4001C120.414 41.3649 120.698 41.3469 120.971 41.3469Z" fill="#D30001"/>
</g>
<g filter="url(#filter6_d_5153_1875)">
<rect x="690" y="14" width="65" height="65" rx="10" fill="#1A1A1A" shape-rendering="crispEdges"/>
<path d="M735 46.5C735 44.8438 732.938 43.2813 729.75 42.3125C730.469 39.0625 730.156 36.5 728.719 35.6563C728.364 35.4646 727.966 35.3677 727.562 35.375V36.5C727.812 36.5 728 36.5313 728.156 36.625C728.844 37.0313 729.156 38.5313 728.906 40.4688L728.656 41.9688C727.587 41.7076 726.501 41.5197 725.406 41.4063C724.719 40.4688 724 39.5938 723.281 38.8438C724.969 37.3438 726.531 36.5 727.594 36.5V35.375C726.188 35.375 724.344 36.375 722.5 38.0938C720.625 36.375 718.812 35.375 717.406 35.375V36.5C718.469 36.5 720.031 37.3438 721.688 38.875C720.969 39.625 720.25 40.4688 719.594 41.4063C718.437 41.5313 717.344 41.7188 716.344 41.9688C716.218 41.4874 716.134 40.996 716.094 40.5C715.844 38.5625 716.156 37.0313 716.844 36.625C717 36.5313 717.188 36.5 717.438 36.5V35.4063C717 35.4063 716.625 35.5 716.281 35.6875C714.844 36.5 714.531 39.0938 715.281 42.3125C712.063 43.2813 710 44.8438 710 46.5C710 48.1563 712.062 49.7188 715.25 50.6875C714.531 53.9375 714.844 56.5 716.281 57.3438C716.625 57.5313 717 57.625 717.438 57.625C718.844 57.625 720.688 56.625 722.531 54.9063C724.375 56.625 726.219 57.625 727.625 57.625C728.062 57.625 728.438 57.5313 728.781 57.3438C730.219 56.5313 730.531 53.9375 729.781 50.7188C732.937 49.7188 735 48.1563 735 46.5ZM728.375 43.0938C728.188 43.75 727.937 44.4375 727.687 45.0938L727.031 43.875C726.781 43.4688 726.562 43.0625 726.312 42.6875C727 42.8125 727.688 42.9375 728.375 43.0938ZM726.031 48.5313C725.625 49.2188 725.219 49.875 724.812 50.4688C723.284 50.5944 721.747 50.5944 720.219 50.4688C719.339 49.2182 718.575 47.8897 717.937 46.5C718.575 45.1103 719.339 43.7819 720.219 42.5313C721.747 42.4056 723.284 42.4056 724.812 42.5313C725.692 43.7819 726.456 45.1103 727.094 46.5C726.781 47.1875 726.406 47.875 726.031 48.5313ZM727.687 47.875C727.969 48.5625 728.187 49.25 728.406 49.9063C727.75 50.0625 727.031 50.2188 726.312 50.3125C726.562 49.9063 726.812 49.5313 727.031 49.0938L727.687 47.875ZM722.5 53.3125C722.031 52.8125 721.562 52.2813 721.094 51.6875C721.562 51.7188 722.031 51.7188 722.5 51.7188C722.969 51.7188 723.437 51.7188 723.906 51.6875C723.469 52.2813 722.969 52.8125 722.5 53.3125ZM718.719 50.3125C718 50.2188 717.312 50.0625 716.625 49.9063C716.812 49.25 717.062 48.5625 717.312 47.9063L717.969 49.125L718.719 50.3125ZM722.5 39.6875C722.969 40.1875 723.437 40.7188 723.906 41.3125C723.437 41.2813 722.969 41.2813 722.5 41.2813C722.031 41.2813 721.562 41.2813 721.094 41.3125C721.531 40.7188 722.031 40.1875 722.5 39.6875ZM718.719 42.6875C718.469 43.0938 718.219 43.4688 718 43.9063C717.75 44.3125 717.531 44.7188 717.344 45.125C717.062 44.4375 716.844 43.75 716.625 43.0938C717.281 42.9375 718 42.8125 718.719 42.6875ZM714.094 49.0938C712.281 48.3125 711.125 47.3125 711.125 46.5C711.125 45.6875 712.281 44.6875 714.094 43.9063C714.531 43.7188 715 43.5625 715.5 43.4063C715.781 44.4063 716.188 45.4375 716.656 46.5C716.188 47.5625 715.812 48.5938 715.531 49.5938C715.031 49.4375 714.562 49.2813 714.094 49.0938ZM716.844 56.375C716.156 55.9688 715.844 54.4688 716.094 52.5313L716.344 51.0313C717.344 51.2813 718.437 51.4688 719.594 51.5938C720.281 52.5313 721 53.4063 721.719 54.1563C720.031 55.6563 718.469 56.5 717.438 56.5C717.233 56.4984 717.031 56.4559 716.844 56.375ZM728.937 52.4688C729.187 54.4063 728.875 55.9375 728.188 56.3438C728.005 56.439 727.799 56.4823 727.594 56.4688C726.531 56.4688 724.969 55.625 723.313 54.0938C724.031 53.3438 724.75 52.5 725.406 51.5625C726.562 51.4375 727.656 51.25 728.656 51C728.781 51.5 728.875 52 728.937 52.4688ZM730.906 49.0938C730.469 49.2813 730 49.4375 729.5 49.5938C729.219 48.5938 728.812 47.5625 728.344 46.5C728.812 45.4375 729.188 44.4063 729.469 43.4063C729.969 43.5625 730.438 43.75 730.906 43.9375C732.719 44.7188 733.875 45.7188 733.875 46.5313C733.875 47.3125 732.688 48.3125 730.906 49.0938ZM722.5 48.8438C723.122 48.8438 723.718 48.5968 724.157 48.1573C724.597 47.7178 724.844 47.1216 724.844 46.5C724.844 45.8784 724.597 45.2823 724.157 44.8427C723.718 44.4032 723.122 44.1563 722.5 44.1563C721.878 44.1563 721.282 44.4032 720.843 44.8427C720.403 45.2823 720.156 45.8784 720.156 46.5C720.156 47.1216 720.403 47.7178 720.843 48.1573C721.282 48.5968 721.878 48.8438 722.5 48.8438Z" fill="#3096FF"/>
</g>
<g filter="url(#filter7_d_5153_1875)">
<rect x="10" y="14" width="65" height="65" rx="10" fill="#1A1A1A" shape-rendering="crispEdges"/>
<path d="M50 35.709H55L42.5 57.2715L30 35.709H39.5625L42.5 40.709L45.375 35.709H50Z" fill="#41B883"/>
<path d="M30 35.709L42.5 57.2715L55 35.709H50L42.5 48.6465L34.9375 35.709H30Z" fill="#41B883"/>
<path d="M34.9375 35.709L42.5 48.709L50 35.709H45.375L42.5 40.709L39.5625 35.709H34.9375Z" fill="#35495E"/>
</g>
<g filter="url(#filter8_d_5153_1875)">
<rect x="945" y="15" width="65" height="65" rx="10" fill="#1A1A1A" shape-rendering="crispEdges"/>
<g clip-path="url(#clip4_5153_1875)">
<path d="M983.478 53.2035C983.637 51.8796 983.589 51.6854 984.575 51.8999L984.826 51.9219C985.584 51.9564 986.576 51.7999 987.159 51.5292C988.413 50.9472 989.157 49.9754 987.92 50.2307C985.098 50.8128 984.904 49.8574 984.904 49.8574C987.884 45.437 989.129 39.8256 988.054 38.452C985.122 34.7055 980.047 36.4772 979.962 36.5232L979.935 36.5283C979.377 36.4126 978.753 36.3434 978.053 36.3321C976.776 36.3111 975.807 36.6668 975.072 37.2242C975.072 37.2242 966.018 33.494 966.439 41.9154C966.529 43.7068 969.007 55.471 971.963 51.9177C973.043 50.6183 974.087 49.5197 974.087 49.5197C974.606 49.8641 975.226 50.0398 975.877 49.9767L975.928 49.9338C975.912 50.0952 975.919 50.253 975.948 50.4398C975.186 51.2905 975.41 51.44 973.888 51.7533C972.347 52.0708 973.252 52.6358 973.843 52.7836C974.559 52.9627 976.216 53.2164 977.336 51.6491L977.291 51.8279C977.59 52.0669 977.57 53.5455 977.612 54.602C977.655 55.6584 977.725 56.6444 977.941 57.2256C978.156 57.8067 978.41 59.3039 980.411 58.8751C982.083 58.5167 983.361 58.001 983.478 53.2035Z" fill="black" stroke="black" stroke-width="1.3425"/>
<path d="M987.92 50.2306C985.099 50.8127 984.905 49.8573 984.905 49.8573C987.884 45.4366 989.129 39.8251 988.055 38.4518C985.123 34.7055 980.047 36.4772 979.962 36.5232L979.935 36.5281C979.378 36.4124 978.754 36.3434 978.052 36.332C976.776 36.3111 975.807 36.6667 975.072 37.224C975.072 37.224 966.018 33.494 966.439 41.9152C966.529 43.7068 969.007 55.471 971.963 51.9176C973.043 50.6183 974.087 49.5197 974.087 49.5197C974.606 49.8641 975.226 50.0398 975.877 49.9767L975.927 49.9338C975.912 50.0951 975.919 50.253 975.948 50.4398C975.186 51.2905 975.41 51.44 973.888 51.7533C972.347 52.0707 973.252 52.6358 973.843 52.7835C974.559 52.9627 976.216 53.2164 977.336 51.6491L977.291 51.8279C977.59 52.0669 977.799 53.3823 977.764 54.5749C977.729 55.7673 977.705 56.586 977.941 57.2255C978.176 57.865 978.41 59.3039 980.411 58.8751C982.083 58.5167 982.95 57.5881 983.07 56.0392C983.156 54.938 983.349 55.1008 983.362 54.1162L983.517 53.6502C983.696 52.1575 983.545 51.6758 984.576 51.8998L984.826 51.9218C985.584 51.9563 986.577 51.7998 987.159 51.5291C988.413 50.9471 989.157 49.9753 987.92 50.2306H987.92Z" fill="#336791"/>
<path d="M977.457 51.0863C977.379 53.8639 977.476 56.6609 977.748 57.3406C978.02 58.0204 978.602 59.3425 980.603 58.9138C982.275 58.5554 982.883 57.8617 983.147 56.3306C983.342 55.2041 983.717 52.0755 983.765 51.4346M975.058 37.162C975.058 37.162 965.997 33.4588 966.419 41.8802C966.508 43.6717 968.987 55.4363 971.942 51.8827C973.023 50.5833 973.999 49.5641 973.999 49.5641M979.952 36.4861C979.638 36.5844 984.992 34.529 988.034 38.4167C989.109 39.7901 987.864 45.4017 984.885 49.8225" stroke="white" stroke-width="0.447491" stroke-linecap="round" stroke-linejoin="round"/>
<path d="M984.885 49.8224C984.885 49.8224 985.079 50.778 987.901 50.1956C989.137 49.9403 988.393 50.9122 987.139 51.4945C986.11 51.9721 983.803 52.0945 983.765 51.4346C983.668 49.7318 984.979 50.2491 984.885 49.8224ZM984.885 49.8224C984.799 49.4382 984.213 49.0611 983.825 48.1206C983.486 47.2998 979.181 41.005 985.019 41.9399C985.233 41.8957 983.496 36.3864 978.032 36.2968C972.57 36.2072 972.749 43.0148 972.749 43.0148" stroke="white" stroke-width="0.447491" stroke-linecap="round" stroke-linejoin="bevel"/>
<path d="M975.927 50.4047C975.166 51.2555 975.39 51.4049 973.867 51.7183C972.327 52.0358 973.232 52.6008 973.823 52.7485C974.539 52.9277 976.196 53.1815 977.315 51.6138C977.656 51.1364 977.313 50.3749 976.845 50.1807C976.619 50.087 976.316 49.9695 975.927 50.4047Z" stroke="white" stroke-width="0.447491" stroke-linecap="round" stroke-linejoin="round"/>
<path d="M975.877 50.3899C975.8 49.8897 976.042 49.2944 976.3 48.5981C976.688 47.5533 977.584 46.5083 976.867 43.194C976.333 40.7242 972.75 42.68 972.748 43.0148C972.746 43.3496 972.91 44.7123 972.688 46.2991C972.399 48.3697 974.006 50.1209 975.856 49.9418" stroke="white" stroke-width="0.447491" stroke-linecap="round" stroke-linejoin="round"/>
<path d="M975.025 42.9646C975.009 43.0791 975.235 43.3842 975.529 43.425C975.822 43.4659 976.074 43.2274 976.09 43.1131C976.106 42.9988 975.88 42.8728 975.586 42.8318C975.292 42.7909 975.041 42.8505 975.025 42.9646H975.025Z" fill="#1A1A1A" stroke="white" stroke-width="0.149154"/>
<path d="M983.968 42.7315C983.984 42.8459 983.758 43.151 983.464 43.1918C983.171 43.2328 982.919 42.9942 982.903 42.88C982.888 42.7656 983.113 42.6396 983.407 42.5987C983.701 42.5577 983.952 42.6174 983.968 42.7315V42.7315Z" fill="#1A1A1A" stroke="white" stroke-width="0.0746067"/>
<path d="M985.019 41.9399C985.067 42.8371 984.825 43.4482 984.795 44.4032C984.75 45.7915 985.457 47.3804 984.392 48.9713" stroke="white" stroke-width="0.447491" stroke-linecap="round" stroke-linejoin="round"/>
</g>
</g>
<g filter="url(#filter9_d_5153_1875)">
<rect x="180" y="14" width="65" height="65" rx="10" fill="#1A1A1A" shape-rendering="crispEdges"/>
<path d="M224.021 50.4983C222.686 51.1938 215.775 54.0355 214.304 54.8025C212.832 55.5697 212.015 55.5623 210.852 55.0066C209.69 54.451 202.335 51.4801 201.01 50.8468C200.348 50.5304 200 50.2632 200 50.0108V47.4839C200 47.4839 209.575 45.3994 211.121 44.8448C212.667 44.2902 213.203 44.2702 214.518 44.7521C215.834 45.2341 223.7 46.6532 225 47.1294L224.999 49.6206C225 49.8704 224.7 50.1444 224.021 50.4983Z" fill="#912626"/>
<path d="M224.02 47.9863C222.686 48.6815 215.775 51.5233 214.303 52.2903C212.832 53.0575 212.015 53.05 210.852 52.4944C209.69 51.9391 202.335 48.9677 201.011 48.3348C199.686 47.7015 199.658 47.2656 200.959 46.7561C202.261 46.2463 209.575 43.3767 211.121 42.8221C212.667 42.2677 213.203 42.2475 214.518 42.7295C215.834 43.2113 222.704 45.9458 224.004 46.4219C225.304 46.8986 225.354 47.291 224.02 47.9863Z" fill="#C6302B"/>
<path d="M224.021 46.4096C222.686 47.1051 215.775 49.9467 214.304 50.7141C212.832 51.481 212.015 51.4736 210.852 50.9179C209.69 50.3625 202.335 47.3913 201.01 46.758C200.348 46.4416 200 46.1748 200 45.9224V43.3951C200 43.3951 209.575 41.3108 211.121 40.7562C212.667 40.2016 213.203 40.1815 214.518 40.6634C215.834 41.1453 223.7 42.5642 225 43.0405L224.999 45.532C225 45.7817 224.7 46.0557 224.021 46.4096Z" fill="#912626"/>
<path d="M224.02 43.8976C222.686 44.5929 215.775 47.4345 214.303 48.2017C212.832 48.9687 212.015 48.9612 210.852 48.4056C209.69 47.8503 202.335 44.879 201.011 44.246C199.686 43.6129 199.658 43.1769 200.959 42.6672C202.261 42.1577 209.575 39.2879 211.121 38.7334C212.667 38.1789 213.203 38.1588 214.518 38.6407C215.834 39.1226 222.704 41.8568 224.004 42.3331C225.304 42.8097 225.354 43.2022 224.02 43.8976Z" fill="#C6302B"/>
<path d="M224.021 42.1692C222.686 42.8645 215.775 45.7063 214.304 46.4737C212.832 47.2407 212.015 47.2332 210.852 46.6775C209.69 46.1222 202.335 43.1509 201.01 42.5179C200.348 42.2012 200 41.9343 200 41.6821V39.1548C200 39.1548 209.575 37.0705 211.121 36.516C212.667 35.9613 213.203 35.9414 214.518 36.4232C215.834 36.9052 223.7 38.324 225 38.8003L224.999 41.2917C225 41.5412 224.7 41.8152 224.021 42.1692Z" fill="#912626"/>
<path d="M224.02 39.6572C222.686 40.3525 215.775 43.1943 214.303 43.9613C212.832 44.7283 212.015 44.7208 210.852 44.1654C209.69 43.6097 202.335 40.6386 201.011 40.0055C199.686 39.3725 199.658 38.9365 200.959 38.4268C202.261 37.9173 209.575 35.0478 211.121 34.4931C212.667 33.9385 213.203 33.9186 214.518 34.4006C215.834 34.8825 222.704 37.6168 224.004 38.093C225.304 38.5692 225.354 38.9619 224.02 39.6572Z" fill="#C6302B"/>
<path d="M215.555 37.1989L213.405 37.4221L212.924 38.5799L212.147 37.2879L209.665 37.0648L211.517 36.397L210.961 35.3718L212.695 36.0499L214.33 35.5147L213.888 36.5748L215.555 37.1989ZM212.796 42.8159L208.784 41.1521L214.533 40.2698L212.796 42.8159ZM207.234 37.8425C208.931 37.8425 210.307 38.3757 210.307 39.0333C210.307 39.6911 208.931 40.2242 207.234 40.2242C205.538 40.2242 204.162 39.691 204.162 39.0333C204.162 38.3757 205.538 37.8425 207.234 37.8425Z" fill="#1A1A1A"/>
<path d="M218.096 37.5154L221.498 38.8598L218.099 40.2028L218.096 37.5154Z" fill="#621B1C"/>
<path d="M214.332 39.0042L218.096 37.5154L218.099 40.2028L217.73 40.3472L214.332 39.0042Z" fill="#9A2928"/>
</g>
<g filter="url(#filter10_d_5153_1875)">
<rect x="350" y="15" width="65" height="65" rx="10" fill="#1A1A1A" shape-rendering="crispEdges"/>
<path d="M394.219 53.7812C393.36 53.9844 392.828 53.7812 392.36 53.0937L388.985 48.5625L388.5 47.9375L384.547 53.0937C384.094 53.7187 383.625 54 382.781 53.7812L387.844 47.2187L383.141 41.2812C383.938 41.125 384.5 41.1875 385 41.9062L388.5 46.4844L392.031 41.9219C392.485 41.2969 392.969 41.0625 393.781 41.2969L391.953 43.6406L389.485 46.7656C389.188 47.1094 389.235 47.3594 389.5 47.7031L394.219 53.7812ZM371.094 45.125C371.336 44.2221 371.796 43.3925 372.433 42.7086C373.071 42.0247 373.866 41.5075 374.749 41.2022C375.633 40.8968 376.578 40.8128 377.501 40.9573C378.425 41.1019 379.299 41.4706 380.047 42.0312C381.906 43.4375 382.36 45.4687 382.266 47.7031H371.797C371.641 51.7344 374.641 54.1719 378.469 52.9375C379.086 52.7299 379.641 52.3707 380.083 51.893C380.525 51.4153 380.841 50.8343 381 50.2031C381.188 49.5781 381.531 49.4687 382.141 49.6562C382.035 50.4337 381.752 51.1764 381.313 51.8267C380.874 52.477 380.291 53.0175 379.61 53.4062C377.36 54.6562 374.141 54.25 372.453 52.5156C371.476 51.5415 370.896 50.2378 370.828 48.8594C370.672 46.5781 370.891 45.8906 371.11 45.125H371.094ZM371.797 46.8281H381.266C381.203 43.9062 379.328 41.8281 376.766 41.8125C373.953 41.7969 371.922 43.8125 371.797 46.8125V46.8281Z" fill="black"/>
</g>
<g filter="url(#filter11_d_5153_1875)">
<rect x="775" y="14" width="65" height="65" rx="10" fill="#1A1A1A" shape-rendering="crispEdges"/>
<path d="M816.562 37.3125C815.458 35.7151 813.786 34.5994 811.887 34.1929C809.988 33.7864 808.005 34.1197 806.344 35.125L800.531 38.8125C799.744 39.3072 799.069 39.9597 798.547 40.7289C798.025 41.4981 797.669 42.3672 797.5 43.2812C797.219 44.8125 797.469 46.4062 798.187 47.8125C797.683 48.5667 797.342 49.4183 797.187 50.3125C796.996 51.7345 797.21 53.1817 797.804 54.4878C798.398 55.7938 799.349 56.9057 800.547 57.6956C801.745 58.4855 803.141 58.9214 804.576 58.9531C806.01 58.9848 807.424 58.6111 808.656 57.875L814.469 54.1562C815.255 53.6615 815.931 53.009 816.453 52.2398C816.975 51.4706 817.331 50.6015 817.5 49.6875C817.781 48.1562 817.531 46.5625 816.812 45.1562C817.312 44.4062 817.656 43.5625 817.812 42.6562C817.968 41.7271 817.937 40.7764 817.722 39.8592C817.508 38.9419 817.114 38.0763 816.562 37.3125Z" fill="#FF3E00"/>
<path d="M805.844 55.75C804.032 56.2187 802.094 55.5 801.032 53.9687C800.653 53.4425 800.402 52.8352 800.299 52.1951C800.196 51.555 800.244 50.8997 800.438 50.2812L800.532 49.9687L800.813 50.1875C801.469 50.6875 802.219 51.0625 803.032 51.2812L803.25 51.3437L803.219 51.5625C803.188 51.875 803.282 52.1562 803.438 52.4062C803.75 52.875 804.344 53.0937 804.907 52.9687C805.029 52.9358 805.145 52.883 805.25 52.8125L810.907 49.2187C811.188 49.0312 811.375 48.75 811.438 48.4375C811.473 48.2748 811.472 48.1063 811.434 47.9441C811.396 47.782 811.323 47.6303 811.219 47.5C811.025 47.2139 810.727 47.0148 810.389 46.9447C810.051 46.8747 809.698 46.9394 809.407 47.125L807.25 48.5C806.276 49.0721 805.122 49.258 804.017 49.0208C802.912 48.7835 801.936 48.1405 801.282 47.2187C800.958 46.767 800.727 46.2552 800.604 45.7132C800.48 45.1711 800.466 44.6099 800.563 44.0625C800.75 42.9687 801.407 42.0312 802.313 41.4375L807.969 37.8437C808.944 37.2716 810.098 37.0857 811.203 37.3229C812.308 37.5602 813.284 38.2032 813.938 39.125C814.317 39.6512 814.568 40.2585 814.671 40.8986C814.774 41.5387 814.726 42.194 814.532 42.8125L814.438 43.125L814.157 42.9062C813.495 42.401 812.742 42.0294 811.938 41.8125L811.719 41.75L811.75 41.5312C811.768 41.2865 811.717 41.0418 811.604 40.8241C811.491 40.6065 811.319 40.4245 811.109 40.2983C810.899 40.172 810.657 40.1066 810.412 40.1091C810.167 40.1116 809.927 40.182 809.719 40.3125L804.094 43.8437C803.813 44 803.594 44.3125 803.563 44.625C803.526 44.7876 803.526 44.9566 803.564 45.1191C803.602 45.2816 803.676 45.4332 803.782 45.5625C803.976 45.8485 804.273 46.0477 804.612 46.1177C804.95 46.1877 805.303 46.1231 805.594 45.9375L807.75 44.5625C808.725 43.9903 809.879 43.8045 810.984 44.0417C812.089 44.2789 813.065 44.9219 813.719 45.8437C814.375 46.75 814.625 47.875 814.438 49C814.25 50.0937 813.594 51.0312 812.688 51.625L807 55.2187C806.625 55.4687 806.25 55.625 805.844 55.75Z" fill="#1A1A1A"/>
</g>
</g>
<defs>
<filter id="filter0_d_5153_1875" x="506" y="6" width="93" height="93" filterUnits="userSpaceOnUse" color-interpolation-filters="sRGB">
<feFlood flood-opacity="0" result="BackgroundImageFix"/>
<feColorMatrix in="SourceAlpha" type="matrix" values="0 0 0 0 0 0 0 0 0 0 0 0 0 0 0 0 0 0 127 0" result="hardAlpha"/>
<feOffset dy="5"/>
<feGaussianBlur stdDeviation="7"/>
<feComposite in2="hardAlpha" operator="out"/>
<feColorMatrix type="matrix" values="0 0 0 0 0 0 0 0 0 0 0 0 0 0 0 0 0 0 0.13 0"/>
<feBlend mode="normal" in2="BackgroundImageFix" result="effect1_dropShadow_5153_1875"/>
<feBlend mode="normal" in="SourceGraphic" in2="effect1_dropShadow_5153_1875" result="shape"/>
</filter>
<filter id="filter1_d_5153_1875" x="846" y="5" width="93" height="93" filterUnits="userSpaceOnUse" color-interpolation-filters="sRGB">
<feFlood flood-opacity="0" result="BackgroundImageFix"/>
<feColorMatrix in="SourceAlpha" type="matrix" values="0 0 0 0 0 0 0 0 0 0 0 0 0 0 0 0 0 0 127 0" result="hardAlpha"/>
<feOffset dy="5"/>
<feGaussianBlur stdDeviation="7"/>
<feComposite in2="hardAlpha" operator="out"/>
<feColorMatrix type="matrix" values="0 0 0 0 0 0 0 0 0 0 0 0 0 0 0 0 0 0 0.13 0"/>
<feBlend mode="normal" in2="BackgroundImageFix" result="effect1_dropShadow_5153_1875"/>
<feBlend mode="normal" in="SourceGraphic" in2="effect1_dropShadow_5153_1875" result="shape"/>
</filter>
<filter id="filter2_d_5153_1875" x="251" y="5" width="93" height="93" filterUnits="userSpaceOnUse" color-interpolation-filters="sRGB">
<feFlood flood-opacity="0" result="BackgroundImageFix"/>
<feColorMatrix in="SourceAlpha" type="matrix" values="0 0 0 0 0 0 0 0 0 0 0 0 0 0 0 0 0 0 127 0" result="hardAlpha"/>
<feOffset dy="5"/>
<feGaussianBlur stdDeviation="7"/>
<feComposite in2="hardAlpha" operator="out"/>
<feColorMatrix type="matrix" values="0 0 0 0 0 0 0 0 0 0 0 0 0 0 0 0 0 0 0.13 0"/>
<feBlend mode="normal" in2="BackgroundImageFix" result="effect1_dropShadow_5153_1875"/>
<feBlend mode="normal" in="SourceGraphic" in2="effect1_dropShadow_5153_1875" result="shape"/>
</filter>
<filter id="filter3_d_5153_1875" x="591" y="5" width="93" height="93" filterUnits="userSpaceOnUse" color-interpolation-filters="sRGB">
<feFlood flood-opacity="0" result="BackgroundImageFix"/>
<feColorMatrix in="SourceAlpha" type="matrix" values="0 0 0 0 0 0 0 0 0 0 0 0 0 0 0 0 0 0 127 0" result="hardAlpha"/>
<feOffset dy="5"/>
<feGaussianBlur stdDeviation="7"/>
<feComposite in2="hardAlpha" operator="out"/>
<feColorMatrix type="matrix" values="0 0 0 0 0 0 0 0 0 0 0 0 0 0 0 0 0 0 0.13 0"/>
<feBlend mode="normal" in2="BackgroundImageFix" result="effect1_dropShadow_5153_1875"/>
<feBlend mode="normal" in="SourceGraphic" in2="effect1_dropShadow_5153_1875" result="shape"/>
</filter>
<filter id="filter4_d_5153_1875" x="421" y="6" width="93" height="93" filterUnits="userSpaceOnUse" color-interpolation-filters="sRGB">
<feFlood flood-opacity="0" result="BackgroundImageFix"/>
<feColorMatrix in="SourceAlpha" type="matrix" values="0 0 0 0 0 0 0 0 0 0 0 0 0 0 0 0 0 0 127 0" result="hardAlpha"/>
<feOffset dy="5"/>
<feGaussianBlur stdDeviation="7"/>
<feComposite in2="hardAlpha" operator="out"/>
<feColorMatrix type="matrix" values="0 0 0 0 0 0 0 0 0 0 0 0 0 0 0 0 0 0 0.13 0"/>
<feBlend mode="normal" in2="BackgroundImageFix" result="effect1_dropShadow_5153_1875"/>
<feBlend mode="normal" in="SourceGraphic" in2="effect1_dropShadow_5153_1875" result="shape"/>
</filter>
<filter id="filter5_d_5153_1875" x="81" y="6" width="93" height="93" filterUnits="userSpaceOnUse" color-interpolation-filters="sRGB">
<feFlood flood-opacity="0" result="BackgroundImageFix"/>
<feColorMatrix in="SourceAlpha" type="matrix" values="0 0 0 0 0 0 0 0 0 0 0 0 0 0 0 0 0 0 127 0" result="hardAlpha"/>
<feOffset dy="5"/>
<feGaussianBlur stdDeviation="7"/>
<feComposite in2="hardAlpha" operator="out"/>
<feColorMatrix type="matrix" values="0 0 0 0 0 0 0 0 0 0 0 0 0 0 0 0 0 0 0.13 0"/>
<feBlend mode="normal" in2="BackgroundImageFix" result="effect1_dropShadow_5153_1875"/>
<feBlend mode="normal" in="SourceGraphic" in2="effect1_dropShadow_5153_1875" result="shape"/>
</filter>
<filter id="filter6_d_5153_1875" x="676" y="5" width="93" height="93" filterUnits="userSpaceOnUse" color-interpolation-filters="sRGB">
<feFlood flood-opacity="0" result="BackgroundImageFix"/>
<feColorMatrix in="SourceAlpha" type="matrix" values="0 0 0 0 0 0 0 0 0 0 0 0 0 0 0 0 0 0 127 0" result="hardAlpha"/>
<feOffset dy="5"/>
<feGaussianBlur stdDeviation="7"/>
<feComposite in2="hardAlpha" operator="out"/>
<feColorMatrix type="matrix" values="0 0 0 0 0 0 0 0 0 0 0 0 0 0 0 0 0 0 0.13 0"/>
<feBlend mode="normal" in2="BackgroundImageFix" result="effect1_dropShadow_5153_1875"/>
<feBlend mode="normal" in="SourceGraphic" in2="effect1_dropShadow_5153_1875" result="shape"/>
</filter>
<filter id="filter7_d_5153_1875" x="-4" y="5" width="93" height="93" filterUnits="userSpaceOnUse" color-interpolation-filters="sRGB">
<feFlood flood-opacity="0" result="BackgroundImageFix"/>
<feColorMatrix in="SourceAlpha" type="matrix" values="0 0 0 0 0 0 0 0 0 0 0 0 0 0 0 0 0 0 127 0" result="hardAlpha"/>
<feOffset dy="5"/>
<feGaussianBlur stdDeviation="7"/>
<feComposite in2="hardAlpha" operator="out"/>
<feColorMatrix type="matrix" values="0 0 0 0 0 0 0 0 0 0 0 0 0 0 0 0 0 0 0.13 0"/>
<feBlend mode="normal" in2="BackgroundImageFix" result="effect1_dropShadow_5153_1875"/>
<feBlend mode="normal" in="SourceGraphic" in2="effect1_dropShadow_5153_1875" result="shape"/>
</filter>
<filter id="filter8_d_5153_1875" x="931" y="6" width="93" height="93" filterUnits="userSpaceOnUse" color-interpolation-filters="sRGB">
<feFlood flood-opacity="0" result="BackgroundImageFix"/>
<feColorMatrix in="SourceAlpha" type="matrix" values="0 0 0 0 0 0 0 0 0 0 0 0 0 0 0 0 0 0 127 0" result="hardAlpha"/>
<feOffset dy="5"/>
<feGaussianBlur stdDeviation="7"/>
<feComposite in2="hardAlpha" operator="out"/>
<feColorMatrix type="matrix" values="0 0 0 0 0 0 0 0 0 0 0 0 0 0 0 0 0 0 0.13 0"/>
<feBlend mode="normal" in2="BackgroundImageFix" result="effect1_dropShadow_5153_1875"/>
<feBlend mode="normal" in="SourceGraphic" in2="effect1_dropShadow_5153_1875" result="shape"/>
</filter>
<filter id="filter9_d_5153_1875" x="166" y="5" width="93" height="93" filterUnits="userSpaceOnUse" color-interpolation-filters="sRGB">
<feFlood flood-opacity="0" result="BackgroundImageFix"/>
<feColorMatrix in="SourceAlpha" type="matrix" values="0 0 0 0 0 0 0 0 0 0 0 0 0 0 0 0 0 0 127 0" result="hardAlpha"/>
<feOffset dy="5"/>
<feGaussianBlur stdDeviation="7"/>
<feComposite in2="hardAlpha" operator="out"/>
<feColorMatrix type="matrix" values="0 0 0 0 0 0 0 0 0 0 0 0 0 0 0 0 0 0 0.13 0"/>
<feBlend mode="normal" in2="BackgroundImageFix" result="effect1_dropShadow_5153_1875"/>
<feBlend mode="normal" in="SourceGraphic" in2="effect1_dropShadow_5153_1875" result="shape"/>
</filter>
<filter id="filter10_d_5153_1875" x="336" y="6" width="93" height="93" filterUnits="userSpaceOnUse" color-interpolation-filters="sRGB">
<feFlood flood-opacity="0" result="BackgroundImageFix"/>
<feColorMatrix in="SourceAlpha" type="matrix" values="0 0 0 0 0 0 0 0 0 0 0 0 0 0 0 0 0 0 127 0" result="hardAlpha"/>
<feOffset dy="5"/>
<feGaussianBlur stdDeviation="7"/>
<feComposite in2="hardAlpha" operator="out"/>
<feColorMatrix type="matrix" values="0 0 0 0 0 0 0 0 0 0 0 0 0 0 0 0 0 0 0.13 0"/>
<feBlend mode="normal" in2="BackgroundImageFix" result="effect1_dropShadow_5153_1875"/>
<feBlend mode="normal" in="SourceGraphic" in2="effect1_dropShadow_5153_1875" result="shape"/>
</filter>
<filter id="filter11_d_5153_1875" x="761" y="5" width="93" height="93" filterUnits="userSpaceOnUse" color-interpolation-filters="sRGB">
<feFlood flood-opacity="0" result="BackgroundImageFix"/>
<feColorMatrix in="SourceAlpha" type="matrix" values="0 0 0 0 0 0 0 0 0 0 0 0 0 0 0 0 0 0 127 0" result="hardAlpha"/>
<feOffset dy="5"/>
<feGaussianBlur stdDeviation="7"/>
<feComposite in2="hardAlpha" operator="out"/>
<feColorMatrix type="matrix" values="0 0 0 0 0 0 0 0 0 0 0 0 0 0 0 0 0 0 0.13 0"/>
<feBlend mode="normal" in2="BackgroundImageFix" result="effect1_dropShadow_5153_1875"/>
<feBlend mode="normal" in="SourceGraphic" in2="effect1_dropShadow_5153_1875" result="shape"/>
</filter>
<linearGradient id="paint0_linear_5153_1875" x1="555.139" y1="51.1806" x2="560.069" y2="57.2917" gradientUnits="userSpaceOnUse">
<stop stop-color="white"/>
<stop offset="1" stop-color="white" stop-opacity="0"/>
</linearGradient>
<linearGradient id="paint1_linear_5153_1875" x1="556.806" y1="42.5" x2="556.778" y2="49.8438" gradientUnits="userSpaceOnUse">
<stop stop-color="white"/>
<stop offset="1" stop-color="white" stop-opacity="0"/>
</linearGradient>
<clipPath id="clip0_5153_1875">
<rect width="1512" height="7696" fill="#1A1A1A" transform="translate(-248 -3489)"/>
</clipPath>
<clipPath id="clip1_5153_1875">
<rect width="25" height="25" fill="#1A1A1A" transform="translate(540 35)"/>
</clipPath>
<clipPath id="clip2_5153_1875">
<rect width="25" height="25" fill="#1A1A1A" transform="translate(880 34)"/>
</clipPath>
<clipPath id="clip3_5153_1875">
<rect width="35" height="35" fill="#1A1A1A" transform="translate(450 30)"/>
</clipPath>
<clipPath id="clip4_5153_1875">
<rect width="25" height="25" fill="#1A1A1A" transform="translate(965 35)"/>
</clipPath>
</defs>
</svg>
