<svg width="1307" height="116" viewBox="0 0 1307 116" fill="none" xmlns="http://www.w3.org/2000/svg">
<rect width="1307" height="116" fill="#1E1E1E"/>
<g clip-path="url(#clip0_0_1)">
<rect width="1307" height="116" fill="white"/>
<mask id="mask0_0_1" style="mask-type:luminance" maskUnits="userSpaceOnUse" x="-240" y="-4180" width="1793" height="9498">
<path d="M1552.28 -4179.7H-239.36V5317.49H1552.28V-4179.7Z" fill="white"/>
</mask>
<g mask="url(#mask0_0_1)">
<path d="M1552.28 -4179.7H-239.36V5317.49H1552.28V-4179.7Z" fill="#1A1A1A"/>
<g filter="url(#filter0_d_0_1)">
<path d="M610.249 17.2769H482.275C475.73 17.2769 470.425 22.8019 470.425 29.6173V85.1492C470.425 91.9646 475.73 97.4896 482.275 97.4896H610.249C616.794 97.4896 622.099 91.9646 622.099 85.1492V29.6173C622.099 22.8019 616.794 17.2769 610.249 17.2769Z" fill="#1A1A1A"/>
<path d="M494.124 64.5635V49.9039C494.124 49.2888 494.439 48.7204 494.95 48.4125L504.714 42.5341C505.817 41.8701 507.197 42.6989 507.197 44.0255V47.6975C507.197 48.3157 506.878 48.8866 506.362 49.1933L501.357 52.1719C500.842 52.4786 500.524 53.0494 500.524 53.6676V60.7404C500.524 61.3605 500.844 61.9326 501.362 62.2388L507.265 65.7282C507.771 66.0273 508.391 66.0276 508.898 65.7286L513.848 62.8056C514.366 62.4998 515.001 62.5075 515.513 62.8256L518.497 64.6843C519.589 65.3638 519.567 67.0179 518.458 67.6655L508.891 73.2538C508.387 73.5473 507.775 73.5473 507.272 73.2536L494.969 66.0661C494.448 65.7611 494.124 65.1867 494.124 64.5635Z" fill="#FFC928"/>
<path d="M509.034 47.5744V41.3937C509.034 41.2675 509.166 41.1885 509.27 41.2513L521.139 48.3423C521.653 48.6493 521.971 49.2193 521.971 49.8366V61.5755C521.971 62.9061 520.583 63.7343 519.481 63.0624L516.389 61.1786C515.882 60.8696 515.571 60.3036 515.571 59.6917V53.5773C515.571 52.9693 515.263 52.4063 514.761 52.096L509.844 49.0558C509.343 48.7454 509.034 48.1824 509.034 47.5744Z" fill="#F99925"/>
</g>
<g filter="url(#filter1_d_0_1)">
<path d="M195.517 17.2769H23.699C17.1547 17.2769 11.8495 22.8019 11.8495 29.6173V85.1492C11.8495 91.9646 17.1547 97.4896 23.699 97.4896H195.517C202.061 97.4896 207.366 91.9646 207.366 85.1492V29.6173C207.366 22.8019 202.061 17.2769 195.517 17.2769Z" fill="#1A1A1A"/>
<mask id="mask1_0_1" style="mask-type:luminance" maskUnits="userSpaceOnUse" x="35" y="41" width="27" height="32">
<path d="M61.8344 41.9574H35.5485V72.8085H61.8344V41.9574Z" fill="white"/>
</mask>
<g mask="url(#mask1_0_1)">
<path d="M35.5572 57.0344C35.5572 54.5311 35.5616 52.0278 35.5513 49.5246C35.5501 49.2287 35.6555 49.0563 35.8899 48.9157C37.6524 47.8581 39.4129 46.797 41.1714 45.7321L44.9941 43.4258C45.7467 42.9713 46.4951 42.5089 47.2544 42.0672C47.3787 41.9947 47.5967 41.9381 47.6867 42.0029C47.7966 42.0816 47.8651 42.2954 47.8681 42.4527C47.8833 43.24 47.8696 44.0279 47.8695 44.8156C47.8695 46.0147 47.8632 47.214 47.8789 48.4128C47.8836 48.7798 47.7599 48.9978 47.4472 49.1828C45.5772 50.2897 43.7208 51.4209 41.857 52.5391C41.647 52.6652 41.5511 52.8242 41.5517 53.0854C41.5585 55.72 41.5585 58.3545 41.5517 60.9891C41.5511 61.2495 41.6393 61.4046 41.854 61.5334C44.0225 62.8341 46.1878 64.1406 48.35 65.4529C48.5908 65.5989 48.7882 65.6172 49.0438 65.4606C50.8044 64.3823 52.5707 63.3144 54.3428 62.2566C55.1452 61.7754 54.9107 61.8023 55.6373 62.2365C57.2203 63.182 58.7912 64.1491 60.3762 65.0907C60.7893 65.3361 60.6838 65.6654 60.3674 65.8548C57.1085 67.8059 53.8539 69.765 50.6036 71.7319C50.0607 72.0593 49.5142 72.3808 48.9767 72.7177C48.7892 72.8352 48.6312 72.8402 48.441 72.725C47.0811 71.9003 45.7165 71.0837 44.3542 70.2629C41.8045 68.7263 39.2551 67.189 36.7061 65.6512C36.4237 65.4809 36.1453 65.3032 35.8586 65.1409C35.6361 65.0149 35.5477 64.8415 35.5485 64.5704C35.5566 62.0584 35.5533 59.5464 35.5533 57.0344H35.5572Z" fill="#157CFF"/>
<path d="M61.8266 56.3638V63.0321C61.8266 63.1283 61.8297 63.2249 61.823 63.3209C61.8012 63.6333 61.5788 63.7674 61.3149 63.6132C60.6282 63.2122 59.9444 62.8061 59.2635 62.3947C58.2416 61.779 57.2264 61.1514 56.1999 60.5447C55.9516 60.3981 55.8472 60.2289 55.8489 59.9228C55.8605 57.6562 55.8515 55.3897 55.8595 53.1232C55.8606 52.847 55.782 52.67 55.5467 52.5296C54.1587 51.7021 52.7776 50.8617 51.394 50.0261C50.8582 49.7024 50.3233 49.377 49.7846 49.0584C49.6198 48.9608 49.557 48.8269 49.5574 48.6305C49.5609 46.5478 49.5577 44.4654 49.56 42.3823C49.5605 41.9852 49.792 41.8496 50.1211 42.0481C51.3529 42.7912 52.5841 43.5354 53.8147 44.281C56.357 45.8172 58.9006 47.3511 61.4454 48.8826C61.7307 49.0534 61.8362 49.2503 61.8344 49.5907C61.8218 51.8484 61.8279 54.1062 61.8279 56.364L61.8266 56.3638Z" fill="#3A52DD"/>
<path d="M47.1801 56.1999C47.252 56.1339 47.3283 56.0722 47.3952 56.001C48.4196 54.908 49.4404 53.8114 50.4704 52.7243C50.5635 52.6335 50.6838 52.579 50.8109 52.5701C51.236 52.5518 51.6621 52.5628 52.1659 52.5628C51.8864 52.8681 51.6557 53.1232 51.422 53.3748C50.4602 54.4099 49.4972 55.4437 48.5331 56.4761C48.3989 56.619 48.3933 56.7135 48.5255 56.867C49.7573 58.2964 50.9845 59.7299 52.2074 61.1675C52.2595 61.2285 52.3053 61.2956 52.3925 61.4108C51.8807 61.4108 51.4324 61.4199 50.985 61.4022C50.9045 61.3992 50.8157 61.2976 50.7512 61.2223C49.6289 59.9137 48.5086 58.6034 47.3901 57.2914C47.3251 57.2154 47.2578 57.1415 47.1397 57.0077C47.119 57.1333 47.1044 57.2598 47.0961 57.3869C47.0943 58.6206 47.0892 59.8544 47.1017 61.0879C47.1043 61.3514 47.0344 61.4537 46.7766 61.4227C46.5932 61.402 46.4082 61.4019 46.2248 61.4224C45.973 61.4493 45.8941 61.3591 45.8961 61.0883C45.9078 59.5134 45.9017 57.9384 45.9017 56.3635C45.9017 55.1997 45.9077 54.036 45.8966 52.8723C45.8943 52.6308 45.9623 52.539 46.1946 52.5596C46.3865 52.5782 46.5798 52.5784 46.7718 52.56C47.0231 52.5337 47.1047 52.6234 47.1007 52.893C47.086 53.8727 47.0937 54.8528 47.0948 55.8328C47.0948 55.9431 47.106 56.0529 47.112 56.163L47.1801 56.1999Z" fill="#3C54DF"/>
</g>
<mask id="mask2_0_1" style="mask-type:alpha" maskUnits="userSpaceOnUse" x="81" y="48" width="102" height="22">
<path d="M91.0404 48.9273V51.4596H84.0018V55.5467H90.5925V58.0123H84.0018V62.255H91.1044V64.7872H81.1437V48.9273H91.0404ZM96.3903 64.7872H93.5322V48.9273H96.3903V56.1465L102.576 48.9273H106.052L100.166 55.5911L106.116 64.7872H102.789L98.3312 57.6347L96.3903 59.8338V64.7872ZM109.262 59.6783C109.369 61.633 110.712 62.6992 112.547 62.6992C114.21 62.6992 115.298 61.9662 115.298 60.478C115.298 58.8564 113.954 58.4788 112.013 57.8791C109.497 57.0794 107.001 56.1909 106.98 53.0367C106.937 49.9935 109.625 48.5497 112.419 48.5497C115.469 48.5497 117.666 50.038 117.986 53.5476H115.128C114.85 51.815 113.997 51.0153 112.355 51.0153C110.926 51.0153 109.795 51.6151 109.795 53.0811C109.795 54.3917 111.032 54.9914 112.995 55.5911C115.575 56.3686 118.114 57.1016 118.114 60.478C118.114 63.721 115.362 65.1648 112.547 65.1648C109.219 65.1648 106.596 63.4323 106.34 59.6783H109.262ZM127.723 69.1854C125.676 65.8757 124.311 62.677 124.311 58.7898C124.311 55.3024 125.527 51.5928 127.723 48.5497H130.07C128.107 51.9038 127.126 55.1691 127.126 58.7898C127.126 62.5215 128.129 65.7868 130.07 69.1854H127.723ZM136.532 56.724C136.362 55.5689 135.509 55.0803 134.549 55.0803C133.632 55.0803 132.864 55.5911 132.864 56.3464C132.864 57.1016 133.461 57.5014 134.655 57.8346C135.167 57.9901 135.637 58.1012 136.148 58.2345C138.025 58.7454 139.262 59.7005 139.262 61.4997C139.262 63.6988 137.258 65.1426 134.655 65.1426C132.267 65.1426 130.219 63.9876 129.92 61.2332H132.608C132.8 62.4105 133.504 62.988 134.698 62.988C135.722 62.988 136.575 62.5437 136.575 61.6108C136.575 60.7001 135.743 60.4335 134.911 60.2114C134.378 60.0337 133.845 59.9004 133.29 59.7449C131.499 59.2563 130.283 58.1678 130.283 56.3908C130.283 54.3472 132.16 52.9478 134.57 52.9478C137.087 52.9478 138.815 54.2806 139.092 56.724H136.532ZM146.089 65.1204C142.868 65.1204 140.309 62.7437 140.309 59.0341C140.309 55.3468 142.868 52.9923 146.089 52.9923C149.31 52.9923 151.848 55.3468 151.848 59.0341C151.848 62.7437 149.31 65.1204 146.089 65.1204ZM142.996 59.0341C142.996 61.1221 144.212 62.8547 146.089 62.8547C147.966 62.8547 149.182 61.1221 149.182 59.0341C149.182 56.9683 147.966 55.2357 146.089 55.2357C144.212 55.2357 142.996 56.9683 142.996 59.0341ZM158.623 65.1204C155.403 65.1204 152.843 62.7437 152.843 59.0341C152.843 55.3468 155.403 52.9923 158.623 52.9923C161.844 52.9923 164.382 55.3468 164.382 59.0341C164.382 62.7437 161.844 65.1204 158.623 65.1204ZM155.531 59.0341C155.531 61.1221 156.746 62.8547 158.623 62.8547C160.5 62.8547 161.716 61.1221 161.716 59.0341C161.716 56.9683 160.5 55.2357 158.623 55.2357C156.746 55.2357 155.531 56.9683 155.531 59.0341ZM166.039 64.7872V53.3032H168.726V55.2802C169.345 53.9474 170.326 52.9923 172.032 52.9923C174.89 52.9923 175.999 54.947 175.999 57.768V64.7872H173.269V58.4566C173.269 56.7906 172.843 55.4801 171.264 55.4801C169.793 55.4801 168.79 56.8351 168.79 59.6339V64.7872H166.039ZM176.462 69.1854C178.403 65.7868 179.405 62.5215 179.405 58.7898C179.405 55.1691 178.424 51.9038 176.462 48.5497H178.808C181.005 51.5928 182.22 55.3024 182.22 58.7898C182.22 62.677 180.855 65.8757 178.808 69.1854H176.462Z" fill="white"/>
</mask>
<g mask="url(#mask2_0_1)">
</g>
</g>
<g filter="url(#filter2_d_0_1)">
<path d="M434.877 17.2769H242.915C236.37 17.2769 231.065 22.8019 231.065 29.6173V85.1492C231.065 91.9646 236.37 97.4896 242.915 97.4896H434.877C441.421 97.4896 446.726 91.9646 446.726 85.1492V29.6173C446.726 22.8019 441.421 17.2769 434.877 17.2769Z" fill="#1A1A1A"/>
<mask id="mask3_0_1" style="mask-type:luminance" maskUnits="userSpaceOnUse" x="254" y="41" width="31" height="33">
<path d="M284.388 41.5619H254.764V73.204H284.388V41.5619Z" fill="white"/>
</mask>
<g mask="url(#mask3_0_1)">
<path d="M269.647 58.2108C269.536 58.3758 269.441 58.5115 269.351 58.6487C267.903 60.8587 266.455 63.0685 265.008 65.278C263.662 67.3332 262.315 69.3873 260.965 71.4401C260.944 71.4724 260.914 71.4993 260.881 71.5193C260.849 71.5393 260.811 71.5519 260.773 71.5562C258.869 71.5392 256.965 71.5177 255.062 71.4919C255.04 71.4919 255.019 71.4854 254.978 71.4788C254.993 71.4375 255.011 71.3973 255.031 71.3584C256.359 69.2229 257.688 67.0877 259.016 64.9532C260.194 63.0614 261.373 61.1701 262.552 59.2793C263.859 57.1783 265.166 55.0758 266.472 52.9719C266.665 52.6617 266.865 52.3573 267.047 52.0413C267.095 51.9568 267.109 51.8568 267.087 51.7618C266.736 50.5983 266.377 49.438 266.018 48.2775C265.865 47.7804 265.704 47.2863 265.56 46.7864C265.514 46.6258 265.437 46.5768 265.28 46.5776C264.083 46.5828 262.893 46.5813 261.701 46.5813C261.473 46.5813 261.473 46.5813 261.473 46.3492C261.473 44.8282 261.473 43.3071 261.469 41.7862C261.469 41.6169 261.522 41.5788 261.676 41.5788C264.078 41.5832 266.48 41.5832 268.883 41.5788C268.939 41.5714 268.994 41.5854 269.042 41.618C269.088 41.6507 269.121 41.6998 269.135 41.7562C270.403 45.0604 271.67 48.3636 272.937 51.6654C274.414 55.5161 275.892 59.3673 277.37 63.219C277.829 64.4146 278.291 65.6094 278.745 66.8077C278.8 66.9537 278.856 66.9815 278.998 66.9362C280.257 66.5325 281.519 66.1399 282.778 65.7356C282.935 65.6845 282.993 65.7188 283.043 65.8816C283.472 67.2806 283.909 68.6769 284.344 70.0746C284.36 70.1227 284.37 70.1716 284.388 70.2387C284.298 70.273 284.214 70.3118 284.127 70.3366C281.265 71.2771 278.405 72.2181 275.546 73.1596C275.41 73.2041 275.368 73.156 275.323 73.0371C274.45 70.7424 273.574 68.4486 272.697 66.1559C271.839 63.9109 270.98 61.6658 270.121 59.4209C269.992 59.0837 269.865 58.745 269.737 58.4079C269.716 58.3502 269.689 58.2999 269.647 58.2108Z" fill="#FA7E14"/>
</g>
</g>
<g filter="url(#filter3_d_0_1)">
<path d="M1113.85 17.2769H923.076C916.532 17.2769 911.227 22.8019 911.227 29.6173V85.1492C911.227 91.9646 916.532 97.4896 923.076 97.4896H1113.85C1120.4 97.4896 1125.7 91.9646 1125.7 85.1492V29.6173C1125.7 22.8019 1120.4 17.2769 1113.85 17.2769Z" fill="#1A1A1A"/>
<mask id="mask4_0_1" style="mask-type:luminance" maskUnits="userSpaceOnUse" x="934" y="41" width="34" height="32">
<path d="M967.549 41.9574H934.926V72.8085H967.549V41.9574Z" fill="white"/>
</mask>
<g mask="url(#mask4_0_1)">
<path d="M944.541 41.9574C943.497 41.9767 942.541 42.5743 942.028 43.528L935.322 55.7129C934.804 56.6591 934.804 57.8227 935.322 58.7686L942.026 71.0552C942.533 72.0221 943.487 72.6393 944.539 72.6819H957.947C958.999 72.644 959.954 72.0292 960.462 71.0633L967.165 58.8462C967.426 58.3655 967.556 57.8306 967.556 57.2956C967.556 56.7606 967.426 56.2257 967.165 55.745L960.462 43.528C959.949 42.5747 958.994 41.9772 957.949 41.9574H944.541Z" fill="#4285F4"/>
<path d="M965.064 62.6621L960.455 71.0633C959.947 72.0292 958.991 72.6441 957.94 72.682H952.833L945.38 64.8029L947.577 57.3795L945.38 49.8711L947.637 51.4596L950.671 54.6673L949.254 49.8711L959.878 57.3513L965.064 62.6621Z" fill="black" fill-opacity="0.07"/>
<path d="M945.38 49.8711L947.637 51.4594L949.406 57.4184L947.669 63.1984L945.38 64.8029L947.59 57.3511L945.38 49.8711ZM951.159 52.5202L952.254 56.232H956.459L951.159 52.5202ZM959.878 57.3511L949.254 64.8029L951.464 57.3511L949.254 49.871L959.878 57.3511Z" fill="#1A1A1A"/>
</g>
</g>
<g filter="url(#filter4_d_0_1)">
<path d="M875.678 17.2769H657.647C651.103 17.2769 645.798 22.8019 645.798 29.6173V85.1492C645.798 91.9646 651.103 97.4896 657.647 97.4896H875.678C882.222 97.4896 887.528 91.9646 887.528 85.1492V29.6173C887.528 22.8019 882.222 17.2769 875.678 17.2769Z" fill="#1A1A1A"/>
<mask id="mask5_0_1" style="mask-type:luminance" maskUnits="userSpaceOnUse" x="669" y="41" width="34" height="32">
<path d="M702.12 41.9574H669.497V72.8085H702.12V41.9574Z" fill="white"/>
</mask>
<g mask="url(#mask5_0_1)">
<path d="M679.112 41.9574C678.068 41.9767 677.112 42.5743 676.599 43.528L669.893 55.7129C669.376 56.6591 669.376 57.8227 669.893 58.7686L676.597 71.0552C677.104 72.0221 678.058 72.6393 679.11 72.6819H692.518C693.57 72.644 694.525 72.0292 695.033 71.0633L701.737 58.8462C701.997 58.3655 702.128 57.8306 702.128 57.2956C702.128 56.7606 701.997 56.2257 701.737 55.745L695.033 43.528C694.52 42.5747 693.565 41.9772 692.52 41.9574H679.112Z" fill="#4285F4"/>
<path d="M699.635 62.6621L695.027 71.0633C694.518 72.0292 693.562 72.6441 692.511 72.682H687.404L679.952 64.8029L682.149 57.3795L679.952 49.8711L682.208 51.4596L685.242 54.6673L683.825 49.8711L694.45 57.3513L699.635 62.6621Z" fill="black" fill-opacity="0.07"/>
<path d="M679.952 49.8711L682.208 51.4594L683.977 57.4184L682.24 63.1984L679.952 64.8029L682.162 57.3511L679.952 49.8711ZM685.731 52.5202L686.826 56.232H691.03L685.731 52.5202ZM694.45 57.3511L683.825 64.8029L686.035 57.3511L683.825 49.871L694.45 57.3511Z" fill="#1A1A1A"/>
</g>
</g>
<g filter="url(#filter5_d_0_1)">
<path d="M1283.3 17.2769H1161.25C1154.71 17.2769 1149.4 22.8019 1149.4 29.6173V85.1492C1149.4 91.9646 1154.71 97.4896 1161.25 97.4896H1283.3C1289.85 97.4896 1295.15 91.9646 1295.15 85.1492V29.6173C1295.15 22.8019 1289.85 17.2769 1283.3 17.2769Z" fill="#1A1A1A"/>
<path d="M1179.53 69.7282L1173.46 58.7688C1172.98 57.9113 1172.98 56.8549 1173.46 55.9973L1179.53 45.038C1180.01 44.1805 1180.89 43.652 1181.84 43.652H1193.99C1194.94 43.652 1195.82 44.1805 1196.29 45.038L1202.37 55.9973C1202.84 56.8549 1202.84 57.9113 1202.37 58.7688L1196.29 69.7282C1195.82 70.5858 1194.94 71.1138 1193.99 71.1138H1181.84C1180.89 71.1138 1180.01 70.5855 1179.53 69.7282Z" fill="url(#paint0_linear_0_1)"/>
<mask id="mask6_0_1" style="mask-type:luminance" maskUnits="userSpaceOnUse" x="1173" y="43" width="30" height="29">
<path d="M1179.53 69.7282L1173.46 58.7688C1172.98 57.9113 1172.98 56.8549 1173.46 55.9973L1179.53 45.038C1180.01 44.1805 1180.89 43.652 1181.84 43.652H1193.99C1194.94 43.652 1195.82 44.1805 1196.29 45.038L1202.37 55.9973C1202.84 56.8549 1202.84 57.9113 1202.37 58.7688L1196.29 69.7282C1195.82 70.5858 1194.94 71.1138 1193.99 71.1138H1181.84C1180.89 71.1138 1180.01 70.5855 1179.53 69.7282Z" fill="#1A1A1A"/>
</mask>
<g mask="url(#mask6_0_1)">
<path opacity="0.07" d="M1201.81 61.9286L1193.85 53.6326L1187.91 50.8753L1182.24 54.0833L1182 61.155L1191.85 71.4081L1195.71 71.372L1201.81 61.9286Z" fill="black"/>
</g>
<path d="M1193.71 53.5249L1188.22 50.2301C1188.03 50.114 1187.79 50.114 1187.6 50.2301L1182.12 53.5249C1181.93 53.6411 1181.81 53.8558 1181.81 54.0882V60.6775C1181.81 60.9099 1181.93 61.1246 1182.12 61.2408L1187.6 64.5356C1187.79 64.6517 1188.03 64.6517 1188.22 64.5356L1193.71 61.2408C1193.9 61.1246 1194.02 60.9099 1194.02 60.6775V54.0882C1194.02 53.8558 1193.9 53.6411 1193.71 53.5249ZM1192.95 60.047L1191.04 58.8976V55.8695L1188.22 57.5664V60.9624L1190.73 59.4485L1192.65 60.598L1187.91 63.445L1183.18 60.598L1185.09 59.4485L1187.6 60.9624V57.5664L1184.79 55.8695V58.8976L1182.87 60.047V54.353L1187.6 51.5061V53.805L1185.09 55.3189L1187.91 57.0157L1190.73 55.3189L1188.22 53.805V51.5061L1192.95 54.353V60.047Z" fill="#1A1A1A"/>
</g>
</g>
<path d="M84.2642 65V50.4545H94.0653V52.9901H87.3395V56.456H93.5611V58.9915H87.3395V62.4645H94.0938V65H84.2642ZM100.473 65.1776C99.6448 65.1776 98.8943 64.9645 98.2219 64.5384C97.5543 64.1075 97.024 63.4754 96.631 62.642C96.2428 61.804 96.0487 60.7765 96.0487 59.5597C96.0487 58.3097 96.2499 57.2704 96.6523 56.4418C97.0548 55.6084 97.5898 54.9858 98.2575 54.5739C98.9298 54.1572 99.6661 53.9489 100.466 53.9489C101.077 53.9489 101.586 54.053 101.993 54.2614C102.405 54.465 102.737 54.7206 102.988 55.0284C103.243 55.3314 103.437 55.6297 103.57 55.9233H103.662V50.4545H106.681V65H103.698V63.2528H103.57C103.428 63.5559 103.227 63.8565 102.966 64.1548C102.711 64.4484 102.377 64.6922 101.965 64.8864C101.558 65.0805 101.06 65.1776 100.473 65.1776ZM101.432 62.7699C101.92 62.7699 102.332 62.6373 102.668 62.3722C103.009 62.1023 103.269 61.7259 103.449 61.2429C103.634 60.7599 103.726 60.1941 103.726 59.5455C103.726 58.8968 103.636 58.3333 103.456 57.8551C103.276 57.3769 103.016 57.0076 102.675 56.7472C102.334 56.4867 101.92 56.3565 101.432 56.3565C100.935 56.3565 100.516 56.4915 100.175 56.7614C99.8342 57.0312 99.5761 57.4053 99.4009 57.8835C99.2257 58.3617 99.1381 58.9157 99.1381 59.5455C99.1381 60.1799 99.2257 60.741 99.4009 61.2287C99.5808 61.7116 99.8389 62.0904 100.175 62.3651C100.516 62.6349 100.935 62.7699 101.432 62.7699ZM114.083 69.3182C113.103 69.3182 112.263 69.1832 111.562 68.9134C110.866 68.6482 110.312 68.286 109.9 67.8267C109.488 67.3674 109.22 66.8513 109.097 66.2784L111.896 65.902C111.981 66.1198 112.116 66.3234 112.3 66.5128C112.485 66.7022 112.729 66.8537 113.032 66.9673C113.34 67.0857 113.714 67.1449 114.154 67.1449C114.812 67.1449 115.354 66.9839 115.781 66.6619C116.211 66.3447 116.427 65.812 116.427 65.0639V63.0682H116.299C116.166 63.3712 115.968 63.6577 115.702 63.9276C115.437 64.1974 115.096 64.4176 114.68 64.5881C114.263 64.7585 113.766 64.8438 113.188 64.8438C112.369 64.8438 111.623 64.6544 110.951 64.2756C110.283 63.892 109.751 63.3073 109.353 62.5213C108.96 61.7306 108.763 60.7315 108.763 59.5241C108.763 58.2884 108.965 57.2562 109.367 56.4276C109.77 55.599 110.305 54.9787 110.972 54.5668C111.645 54.1548 112.381 53.9489 113.181 53.9489C113.792 53.9489 114.303 54.053 114.715 54.2614C115.127 54.465 115.459 54.7206 115.71 55.0284C115.965 55.3314 116.162 55.6297 116.299 55.9233H116.413V54.0909H119.417V65.1065C119.417 66.0346 119.19 66.8111 118.735 67.4361C118.281 68.0611 117.651 68.5298 116.846 68.8423C116.046 69.1596 115.125 69.3182 114.083 69.3182ZM114.147 62.571C114.635 62.571 115.047 62.4503 115.383 62.2088C115.724 61.9626 115.984 61.6122 116.164 61.1577C116.349 60.6984 116.441 60.1491 116.441 59.5099C116.441 58.8707 116.351 58.3168 116.171 57.848C115.991 57.3745 115.731 57.0076 115.39 56.7472C115.049 56.4867 114.635 56.3565 114.147 56.3565C113.65 56.3565 113.231 56.4915 112.89 56.7614C112.549 57.0265 112.291 57.3958 112.116 57.8693C111.941 58.3428 111.853 58.8897 111.853 59.5099C111.853 60.1397 111.941 60.6842 112.116 61.1435C112.296 61.598 112.554 61.9508 112.89 62.2017C113.231 62.4479 113.65 62.571 114.147 62.571ZM126.796 65.2131C125.674 65.2131 124.708 64.9858 123.898 64.5312C123.094 64.072 122.473 63.4233 122.038 62.5852C121.602 61.7424 121.384 60.7457 121.384 59.5952C121.384 58.473 121.602 57.4882 122.038 56.6406C122.473 55.7931 123.086 55.1326 123.877 54.6591C124.673 54.1856 125.605 53.9489 126.675 53.9489C127.395 53.9489 128.065 54.0649 128.685 54.2969C129.31 54.5241 129.855 54.8674 130.319 55.3267C130.788 55.786 131.152 56.3636 131.413 57.0597C131.673 57.7509 131.803 58.5606 131.803 59.4886V60.3196H122.592V58.4446H128.955C128.955 58.009 128.861 57.6231 128.671 57.2869C128.482 56.9508 128.219 56.688 127.883 56.4986C127.551 56.3045 127.165 56.2074 126.725 56.2074C126.266 56.2074 125.859 56.3139 125.504 56.527C125.153 56.7353 124.879 57.017 124.68 57.3722C124.481 57.7225 124.379 58.1132 124.374 58.544V60.3267C124.374 60.8665 124.474 61.3329 124.673 61.7259C124.876 62.1188 125.163 62.4219 125.532 62.6349C125.901 62.848 126.339 62.9545 126.846 62.9545C127.182 62.9545 127.49 62.9072 127.769 62.8125C128.049 62.7178 128.288 62.5758 128.487 62.3864C128.685 62.197 128.837 61.965 128.941 61.6903L131.739 61.875C131.597 62.5473 131.306 63.1345 130.866 63.6364C130.43 64.1335 129.867 64.5218 129.175 64.8011C128.489 65.0758 127.696 65.2131 126.796 65.2131ZM133.835 65V50.4545H143.465V52.9901H136.91V56.456H142.826V58.9915H136.91V65H133.835ZM149.605 65.2131C148.502 65.2131 147.548 64.9787 146.743 64.5099C145.943 64.0365 145.325 63.3783 144.889 62.5355C144.454 61.688 144.236 60.7055 144.236 59.5881C144.236 58.4612 144.454 57.4763 144.889 56.6335C145.325 55.786 145.943 55.1278 146.743 54.6591C147.548 54.1856 148.502 53.9489 149.605 53.9489C150.708 53.9489 151.66 54.1856 152.46 54.6591C153.265 55.1278 153.885 55.786 154.321 56.6335C154.757 57.4763 154.974 58.4612 154.974 59.5881C154.974 60.7055 154.757 61.688 154.321 62.5355C153.885 63.3783 153.265 64.0365 152.46 64.5099C151.66 64.9787 150.708 65.2131 149.605 65.2131ZM149.619 62.8693C150.121 62.8693 150.54 62.7273 150.876 62.4432C151.213 62.1544 151.466 61.7614 151.636 61.2642C151.812 60.767 151.899 60.2012 151.899 59.5668C151.899 58.9323 151.812 58.3665 151.636 57.8693C151.466 57.3722 151.213 56.9792 150.876 56.6903C150.54 56.4015 150.121 56.2571 149.619 56.2571C149.113 56.2571 148.687 56.4015 148.341 56.6903C148 56.9792 147.742 57.3722 147.567 57.8693C147.396 58.3665 147.311 58.9323 147.311 59.5668C147.311 60.2012 147.396 60.767 147.567 61.2642C147.742 61.7614 148 62.1544 148.341 62.4432C148.687 62.7273 149.113 62.8693 149.619 62.8693ZM156.942 65V54.0909H159.875V55.9943H159.989C160.188 55.3172 160.521 54.8059 160.99 54.4602C161.459 54.1098 161.999 53.9347 162.609 53.9347C162.761 53.9347 162.924 53.9441 163.099 53.9631C163.275 53.982 163.429 54.008 163.561 54.0412V56.7259C163.419 56.6832 163.223 56.6454 162.972 56.6122C162.721 56.5791 162.491 56.5625 162.283 56.5625C161.838 56.5625 161.44 56.6596 161.089 56.8537C160.744 57.0431 160.469 57.3082 160.266 57.6491C160.067 57.9901 159.967 58.383 159.967 58.8281V65H156.942ZM169.547 65.2131C168.429 65.2131 167.468 64.9763 166.663 64.5028C165.863 64.0246 165.247 63.3617 164.816 62.5142C164.39 61.6667 164.177 60.6913 164.177 59.5881C164.177 58.4706 164.393 57.4905 164.824 56.6477C165.259 55.8002 165.877 55.1397 166.677 54.6662C167.477 54.188 168.429 53.9489 169.532 53.9489C170.484 53.9489 171.317 54.1217 172.032 54.4673C172.747 54.813 173.313 55.2983 173.73 55.9233C174.146 56.5483 174.376 57.2822 174.419 58.125H171.564C171.483 57.5805 171.27 57.1425 170.924 56.8111C170.583 56.4749 170.136 56.3068 169.582 56.3068C169.113 56.3068 168.704 56.4347 168.353 56.6903C168.008 56.9413 167.738 57.3082 167.544 57.7912C167.35 58.2741 167.252 58.8589 167.252 59.5455C167.252 60.2415 167.347 60.8333 167.537 61.321C167.731 61.8087 168.003 62.1804 168.353 62.4361C168.704 62.6918 169.113 62.8196 169.582 62.8196C169.928 62.8196 170.238 62.7486 170.512 62.6065C170.792 62.4645 171.021 62.2585 171.201 61.9886C171.386 61.714 171.507 61.3849 171.564 61.0014H174.419C174.371 61.8348 174.144 62.5687 173.737 63.2031C173.334 63.8329 172.778 64.3253 172.068 64.6804C171.358 65.0355 170.517 65.2131 169.547 65.2131ZM181.327 65.2131C180.205 65.2131 179.239 64.9858 178.43 64.5312C177.625 64.072 177.004 63.4233 176.569 62.5852C176.133 61.7424 175.915 60.7457 175.915 59.5952C175.915 58.473 176.133 57.4882 176.569 56.6406C177.004 55.7931 177.618 55.1326 178.408 54.6591C179.204 54.1856 180.137 53.9489 181.207 53.9489C181.926 53.9489 182.596 54.0649 183.217 54.2969C183.842 54.5241 184.386 54.8674 184.85 55.3267C185.319 55.786 185.683 56.3636 185.944 57.0597C186.204 57.7509 186.335 58.5606 186.335 59.4886V60.3196H177.123V58.4446H183.487C183.487 58.009 183.392 57.6231 183.202 57.2869C183.013 56.9508 182.75 56.688 182.414 56.4986C182.083 56.3045 181.697 56.2074 181.256 56.2074C180.797 56.2074 180.39 56.3139 180.035 56.527C179.684 56.7353 179.41 57.017 179.211 57.3722C179.012 57.7225 178.91 58.1132 178.906 58.544V60.3267C178.906 60.8665 179.005 61.3329 179.204 61.7259C179.407 62.1188 179.694 62.4219 180.063 62.6349C180.433 62.848 180.871 62.9545 181.377 62.9545C181.713 62.9545 182.021 62.9072 182.3 62.8125C182.58 62.7178 182.819 62.5758 183.018 62.3864C183.217 62.197 183.368 61.965 183.472 61.6903L186.271 61.875C186.129 62.5473 185.837 63.1345 185.397 63.6364C184.961 64.1335 184.398 64.5218 183.707 64.8011C183.02 65.0758 182.227 65.2131 181.327 65.2131Z" fill="white"/>
<path d="M990.155 54.6378C990.098 54.0649 989.854 53.6198 989.423 53.3026C988.992 52.9853 988.408 52.8267 987.669 52.8267C987.167 52.8267 986.743 52.8977 986.398 53.0398C986.052 53.1771 985.787 53.3688 985.602 53.6151C985.422 53.8613 985.332 54.1406 985.332 54.4531C985.323 54.7135 985.377 54.9408 985.496 55.1349C985.619 55.3291 985.787 55.4972 986 55.6392C986.213 55.7765 986.459 55.8973 986.739 56.0014C987.018 56.1009 987.316 56.1861 987.634 56.2571L988.94 56.5696C989.575 56.7116 990.157 56.901 990.688 57.1378C991.218 57.3745 991.677 57.6657 992.065 58.0114C992.454 58.357 992.754 58.7642 992.967 59.233C993.185 59.7017 993.296 60.2391 993.301 60.8452C993.296 61.7353 993.069 62.5071 992.619 63.1605C992.174 63.8092 991.53 64.3134 990.688 64.6733C989.849 65.0284 988.839 65.206 987.655 65.206C986.481 65.206 985.458 65.026 984.587 64.6662C983.72 64.3063 983.043 63.7737 982.555 63.0682C982.072 62.358 981.819 61.4796 981.795 60.4332H984.771C984.804 60.9209 984.944 61.3281 985.19 61.6548C985.441 61.9768 985.775 62.2206 986.192 62.3864C986.613 62.5473 987.089 62.6278 987.619 62.6278C988.14 62.6278 988.592 62.5521 988.976 62.4006C989.364 62.2491 989.665 62.0384 989.878 61.7685C990.091 61.4986 990.197 61.1884 990.197 60.8381C990.197 60.5114 990.1 60.2367 989.906 60.0142C989.717 59.7917 989.438 59.6023 989.068 59.446C988.704 59.2898 988.256 59.1477 987.726 59.0199L986.142 58.6222C984.916 58.3239 983.947 57.8575 983.237 57.223C982.527 56.5885 982.174 55.7339 982.179 54.6591C982.174 53.7784 982.409 53.009 982.882 52.3509C983.36 51.6927 984.016 51.179 984.849 50.8097C985.683 50.4403 986.63 50.2557 987.69 50.2557C988.77 50.2557 989.712 50.4403 990.517 50.8097C991.327 51.179 991.956 51.6927 992.406 52.3509C992.856 53.009 993.088 53.7713 993.102 54.6378H990.155ZM998.054 61.8608L998.061 58.2315H998.502L1002 54.0909H1005.47L1000.77 59.5739H1000.06L998.054 61.8608ZM995.313 65V50.4545H998.338V65H995.313ZM1002.13 65L998.921 60.2486L1000.94 58.1108L1005.68 65H1002.13ZM1009 69.0909C1008.61 69.0909 1008.25 69.0601 1007.92 68.9986C1007.59 68.9418 1007.31 68.8684 1007.09 68.7784L1007.78 66.5199C1008.13 66.6288 1008.45 66.688 1008.73 66.6974C1009.02 66.7069 1009.27 66.6406 1009.48 66.4986C1009.69 66.3565 1009.87 66.1151 1010 65.7741L1010.18 65.3125L1006.26 54.0909H1009.44L1011.7 62.1023H1011.82L1014.1 54.0909H1017.3L1013.06 66.179C1012.86 66.7661 1012.58 67.2775 1012.23 67.7131C1011.88 68.1534 1011.45 68.492 1010.91 68.7287C1010.38 68.9702 1009.75 69.0909 1009 69.0909ZM1024.06 65H1018.9V50.4545H1024.1C1025.57 50.4545 1026.83 50.7457 1027.88 51.3281C1028.94 51.9058 1029.75 52.7367 1030.32 53.821C1030.89 54.9053 1031.18 56.2027 1031.18 57.7131C1031.18 59.2282 1030.89 60.5303 1030.32 61.6193C1029.75 62.7083 1028.93 63.544 1027.87 64.1264C1026.81 64.7088 1025.54 65 1024.06 65ZM1021.98 62.3651H1023.93C1024.84 62.3651 1025.61 62.2041 1026.23 61.8821C1026.85 61.5554 1027.32 61.0511 1027.63 60.3693C1027.95 59.6828 1028.11 58.7973 1028.11 57.7131C1028.11 56.6383 1027.95 55.7599 1027.63 55.0781C1027.32 54.3963 1026.85 53.8944 1026.23 53.5724C1025.61 53.2505 1024.85 53.0895 1023.94 53.0895H1021.98V62.3651ZM1033.4 65V54.0909H1036.33V55.9943H1036.45C1036.64 55.3172 1036.98 54.8059 1037.45 54.4602C1037.92 54.1098 1038.46 53.9347 1039.07 53.9347C1039.22 53.9347 1039.38 53.9441 1039.56 53.9631C1039.73 53.982 1039.89 54.008 1040.02 54.0412V56.7259C1039.88 56.6832 1039.68 56.6454 1039.43 56.6122C1039.18 56.5791 1038.95 56.5625 1038.74 56.5625C1038.29 56.5625 1037.9 56.6596 1037.55 56.8537C1037.2 57.0431 1036.93 57.3082 1036.72 57.6491C1036.52 57.9901 1036.42 58.383 1036.42 58.8281V65H1033.4ZM1041.58 65V54.0909H1044.61V65H1041.58ZM1043.1 52.6847C1042.65 52.6847 1042.27 52.5355 1041.94 52.2372C1041.63 51.9342 1041.47 51.572 1041.47 51.1506C1041.47 50.7339 1041.63 50.3764 1041.94 50.0781C1042.27 49.7751 1042.65 49.6236 1043.1 49.6236C1043.55 49.6236 1043.94 49.7751 1044.25 50.0781C1044.57 50.3764 1044.74 50.7339 1044.74 51.1506C1044.74 51.572 1044.57 51.9342 1044.25 52.2372C1043.94 52.5355 1043.55 52.6847 1043.1 52.6847ZM1057.2 54.0909L1053.39 65H1049.98L1046.17 54.0909H1049.36L1051.63 61.8963H1051.74L1054 54.0909H1057.2ZM1063.37 65.2131C1062.25 65.2131 1061.28 64.9858 1060.47 64.5312C1059.67 64.072 1059.05 63.4233 1058.61 62.5852C1058.18 61.7424 1057.96 60.7457 1057.96 59.5952C1057.96 58.473 1058.18 57.4882 1058.61 56.6406C1059.05 55.7931 1059.66 55.1326 1060.45 54.6591C1061.25 54.1856 1062.18 53.9489 1063.25 53.9489C1063.97 53.9489 1064.64 54.0649 1065.26 54.2969C1065.88 54.5241 1066.43 54.8674 1066.89 55.3267C1067.36 55.786 1067.73 56.3636 1067.99 57.0597C1068.25 57.7509 1068.38 58.5606 1068.38 59.4886V60.3196H1059.17V58.4446H1065.53C1065.53 58.009 1065.43 57.6231 1065.25 57.2869C1065.06 56.9508 1064.79 56.688 1064.46 56.4986C1064.13 56.3045 1063.74 56.2074 1063.3 56.2074C1062.84 56.2074 1062.43 56.3139 1062.08 56.527C1061.73 56.7353 1061.45 57.017 1061.25 57.3722C1061.06 57.7225 1060.95 58.1132 1060.95 58.544V60.3267C1060.95 60.8665 1061.05 61.3329 1061.25 61.7259C1061.45 62.1188 1061.74 62.4219 1062.11 62.6349C1062.48 62.848 1062.91 62.9545 1063.42 62.9545C1063.76 62.9545 1064.06 62.9072 1064.34 62.8125C1064.62 62.7178 1064.86 62.5758 1065.06 62.3864C1065.26 62.197 1065.41 61.965 1065.52 61.6903L1068.31 61.875C1068.17 62.5473 1067.88 63.1345 1067.44 63.6364C1067 64.1335 1066.44 64.5218 1065.75 64.8011C1065.06 65.0758 1064.27 65.2131 1063.37 65.2131ZM1075.04 65V50.4545H1080.78C1081.88 50.4545 1082.82 50.6652 1083.6 51.0866C1084.37 51.5033 1084.96 52.0833 1085.37 52.8267C1085.78 53.5653 1085.99 54.4176 1085.99 55.3835C1085.99 56.3494 1085.78 57.2017 1085.36 57.9403C1084.95 58.679 1084.34 59.2543 1083.55 59.6662C1082.77 60.0781 1081.82 60.2841 1080.7 60.2841H1077.04V57.8196H1080.2C1080.79 57.8196 1081.28 57.7178 1081.66 57.5142C1082.05 57.3059 1082.34 57.0194 1082.53 56.6548C1082.72 56.2855 1082.82 55.8617 1082.82 55.3835C1082.82 54.9006 1082.72 54.4792 1082.53 54.1193C1082.34 53.7547 1082.05 53.473 1081.66 53.2741C1081.28 53.0705 1080.78 52.9688 1080.19 52.9688H1078.11V65H1075.04ZM1087.93 65V54.0909H1090.86V55.9943H1090.98C1091.18 55.3172 1091.51 54.8059 1091.98 54.4602C1092.45 54.1098 1092.99 53.9347 1093.6 53.9347C1093.75 53.9347 1093.91 53.9441 1094.09 53.9631C1094.26 53.982 1094.42 54.008 1094.55 54.0412V56.7259C1094.41 56.6832 1094.21 56.6454 1093.96 56.6122C1093.71 56.5791 1093.48 56.5625 1093.27 56.5625C1092.83 56.5625 1092.43 56.6596 1092.08 56.8537C1091.73 57.0431 1091.46 57.3082 1091.25 57.6491C1091.06 57.9901 1090.96 58.383 1090.96 58.8281V65H1087.93ZM1100.53 65.2131C1099.43 65.2131 1098.48 64.9787 1097.67 64.5099C1096.87 64.0365 1096.25 63.3783 1095.82 62.5355C1095.38 61.688 1095.17 60.7055 1095.17 59.5881C1095.17 58.4612 1095.38 57.4763 1095.82 56.6335C1096.25 55.786 1096.87 55.1278 1097.67 54.6591C1098.48 54.1856 1099.43 53.9489 1100.53 53.9489C1101.64 53.9489 1102.59 54.1856 1103.39 54.6591C1104.19 55.1278 1104.82 55.786 1105.25 56.6335C1105.69 57.4763 1105.9 58.4612 1105.9 59.5881C1105.9 60.7055 1105.69 61.688 1105.25 62.5355C1104.82 63.3783 1104.19 64.0365 1103.39 64.5099C1102.59 64.9787 1101.64 65.2131 1100.53 65.2131ZM1100.55 62.8693C1101.05 62.8693 1101.47 62.7273 1101.81 62.4432C1102.14 62.1544 1102.4 61.7614 1102.57 61.2642C1102.74 60.767 1102.83 60.2012 1102.83 59.5668C1102.83 58.9323 1102.74 58.3665 1102.57 57.8693C1102.4 57.3722 1102.14 56.9792 1101.81 56.6903C1101.47 56.4015 1101.05 56.2571 1100.55 56.2571C1100.04 56.2571 1099.62 56.4015 1099.27 56.6903C1098.93 56.9792 1098.67 57.3722 1098.5 57.8693C1098.33 58.3665 1098.24 58.9323 1098.24 59.5668C1098.24 60.2012 1098.33 60.767 1098.5 61.2642C1098.67 61.7614 1098.93 62.1544 1099.27 62.4432C1099.62 62.7273 1100.04 62.8693 1100.55 62.8693Z" fill="white"/>
<path d="M1216.26 65V50.4545H1226.07V52.9901H1219.34V56.456H1225.56V58.9915H1219.34V62.4645H1226.09V65H1216.26ZM1232.47 65.1776C1231.64 65.1776 1230.89 64.9645 1230.22 64.5384C1229.55 64.1075 1229.02 63.4754 1228.63 62.642C1228.24 61.804 1228.05 60.7765 1228.05 59.5597C1228.05 58.3097 1228.25 57.2704 1228.65 56.4418C1229.05 55.6084 1229.59 54.9858 1230.26 54.5739C1230.93 54.1572 1231.67 53.9489 1232.47 53.9489C1233.08 53.9489 1233.59 54.053 1233.99 54.2614C1234.41 54.465 1234.74 54.7206 1234.99 55.0284C1235.24 55.3314 1235.44 55.6297 1235.57 55.9233H1235.66V50.4545H1238.68V65H1235.7V63.2528H1235.57C1235.43 63.5559 1235.23 63.8565 1234.97 64.1548C1234.71 64.4484 1234.38 64.6922 1233.96 64.8864C1233.56 65.0805 1233.06 65.1776 1232.47 65.1776ZM1233.43 62.7699C1233.92 62.7699 1234.33 62.6373 1234.67 62.3722C1235.01 62.1023 1235.27 61.7259 1235.45 61.2429C1235.63 60.7599 1235.73 60.1941 1235.73 59.5455C1235.73 58.8968 1235.64 58.3333 1235.46 57.8551C1235.28 57.3769 1235.02 57.0076 1234.68 56.7472C1234.33 56.4867 1233.92 56.3565 1233.43 56.3565C1232.94 56.3565 1232.52 56.4915 1232.18 56.7614C1231.83 57.0312 1231.58 57.4053 1231.4 57.8835C1231.23 58.3617 1231.14 58.9157 1231.14 59.5455C1231.14 60.1799 1231.23 60.741 1231.4 61.2287C1231.58 61.7116 1231.84 62.0904 1232.18 62.3651C1232.52 62.6349 1232.94 62.7699 1233.43 62.7699ZM1246.08 69.3182C1245.1 69.3182 1244.26 69.1832 1243.56 68.9134C1242.87 68.6482 1242.31 68.286 1241.9 67.8267C1241.49 67.3674 1241.22 66.8513 1241.1 66.2784L1243.9 65.902C1243.98 66.1198 1244.12 66.3234 1244.3 66.5128C1244.49 66.7022 1244.73 66.8537 1245.03 66.9673C1245.34 67.0857 1245.71 67.1449 1246.15 67.1449C1246.81 67.1449 1247.35 66.9839 1247.78 66.6619C1248.21 66.3447 1248.43 65.812 1248.43 65.0639V63.0682H1248.3C1248.17 63.3712 1247.97 63.6577 1247.7 63.9276C1247.44 64.1974 1247.1 64.4176 1246.68 64.5881C1246.26 64.7585 1245.77 64.8438 1245.19 64.8438C1244.37 64.8438 1243.62 64.6544 1242.95 64.2756C1242.28 63.892 1241.75 63.3073 1241.35 62.5213C1240.96 61.7306 1240.76 60.7315 1240.76 59.5241C1240.76 58.2884 1240.96 57.2562 1241.37 56.4276C1241.77 55.599 1242.3 54.9787 1242.97 54.5668C1243.64 54.1548 1244.38 53.9489 1245.18 53.9489C1245.79 53.9489 1246.3 54.053 1246.72 54.2614C1247.13 54.465 1247.46 54.7206 1247.71 55.0284C1247.97 55.3314 1248.16 55.6297 1248.3 55.9233H1248.41V54.0909H1251.42V65.1065C1251.42 66.0346 1251.19 66.8111 1250.74 67.4361C1250.28 68.0611 1249.65 68.5298 1248.85 68.8423C1248.05 69.1596 1247.12 69.3182 1246.08 69.3182ZM1246.15 62.571C1246.63 62.571 1247.05 62.4503 1247.38 62.2088C1247.72 61.9626 1247.98 61.6122 1248.16 61.1577C1248.35 60.6984 1248.44 60.1491 1248.44 59.5099C1248.44 58.8707 1248.35 58.3168 1248.17 57.848C1247.99 57.3745 1247.73 57.0076 1247.39 56.7472C1247.05 56.4867 1246.63 56.3565 1246.15 56.3565C1245.65 56.3565 1245.23 56.4915 1244.89 56.7614C1244.55 57.0265 1244.29 57.3958 1244.12 57.8693C1243.94 58.3428 1243.85 58.8897 1243.85 59.5099C1243.85 60.1397 1243.94 60.6842 1244.12 61.1435C1244.3 61.598 1244.55 61.9508 1244.89 62.2017C1245.23 62.4479 1245.65 62.571 1246.15 62.571ZM1258.8 65.2131C1257.67 65.2131 1256.71 64.9858 1255.9 64.5312C1255.09 64.072 1254.47 63.4233 1254.04 62.5852C1253.6 61.7424 1253.38 60.7457 1253.38 59.5952C1253.38 58.473 1253.6 57.4882 1254.04 56.6406C1254.47 55.7931 1255.09 55.1326 1255.88 54.6591C1256.67 54.1856 1257.61 53.9489 1258.68 53.9489C1259.4 53.9489 1260.07 54.0649 1260.69 54.2969C1261.31 54.5241 1261.85 54.8674 1262.32 55.3267C1262.79 55.786 1263.15 56.3636 1263.41 57.0597C1263.67 57.7509 1263.8 58.5606 1263.8 59.4886V60.3196H1254.59V58.4446H1260.96C1260.96 58.009 1260.86 57.6231 1260.67 57.2869C1260.48 56.9508 1260.22 56.688 1259.88 56.4986C1259.55 56.3045 1259.17 56.2074 1258.73 56.2074C1258.27 56.2074 1257.86 56.3139 1257.5 56.527C1257.15 56.7353 1256.88 57.017 1256.68 57.3722C1256.48 57.7225 1256.38 58.1132 1256.37 58.544V60.3267C1256.37 60.8665 1256.47 61.3329 1256.67 61.7259C1256.88 62.1188 1257.16 62.4219 1257.53 62.6349C1257.9 62.848 1258.34 62.9545 1258.85 62.9545C1259.18 62.9545 1259.49 62.9072 1259.77 62.8125C1260.05 62.7178 1260.29 62.5758 1260.49 62.3864C1260.69 62.197 1260.84 61.965 1260.94 61.6903L1263.74 61.875C1263.6 62.5473 1263.31 63.1345 1262.87 63.6364C1262.43 64.1335 1261.87 64.5218 1261.18 64.8011C1260.49 65.0758 1259.7 65.2131 1258.8 65.2131Z" fill="white"/>
<path d="M730.098 55.5469H726.987C726.93 55.1444 726.814 54.7869 726.639 54.4744C726.464 54.1572 726.239 53.8873 725.964 53.6648C725.69 53.4422 725.373 53.2718 725.013 53.1534C724.658 53.035 724.272 52.9759 723.855 52.9759C723.102 52.9759 722.446 53.1629 721.888 53.5369C721.329 53.9062 720.896 54.446 720.588 55.1562C720.28 55.8617 720.126 56.7187 720.126 57.7273C720.126 58.7642 720.28 59.6354 720.588 60.3409C720.901 61.0464 721.336 61.5791 721.895 61.9389C722.454 62.2988 723.1 62.4787 723.834 62.4787C724.246 62.4787 724.627 62.4242 724.977 62.3153C725.332 62.2064 725.647 62.0478 725.922 61.8395C726.196 61.6264 726.424 61.3684 726.604 61.0653C726.788 60.7623 726.916 60.4167 726.987 60.0284L730.098 60.0426C730.018 60.7102 729.816 61.3542 729.494 61.9744C729.177 62.59 728.749 63.1416 728.209 63.6293C727.674 64.1122 727.035 64.4957 726.291 64.7798C725.553 65.0592 724.717 65.1989 723.784 65.1989C722.487 65.1989 721.327 64.9053 720.304 64.3182C719.286 63.7311 718.481 62.8812 717.889 61.7685C717.302 60.6558 717.009 59.3087 717.009 57.7273C717.009 56.1411 717.307 54.7917 717.903 53.679C718.5 52.5663 719.31 51.7187 720.332 51.1364C721.355 50.5492 722.506 50.2557 723.784 50.2557C724.627 50.2557 725.408 50.3741 726.128 50.6108C726.852 50.8475 727.494 51.1932 728.053 51.6477C728.611 52.0975 729.066 52.6491 729.416 53.3026C729.771 53.956 729.999 54.7041 730.098 55.5469ZM735.272 50.4545V65H732.246V50.4545H735.272ZM742.625 65.2131C741.521 65.2131 740.567 64.9787 739.762 64.5099C738.962 64.0365 738.344 63.3783 737.909 62.5355C737.473 61.688 737.255 60.7055 737.255 59.5881C737.255 58.4612 737.473 57.4763 737.909 56.6335C738.344 55.786 738.962 55.1278 739.762 54.6591C740.567 54.1856 741.521 53.9489 742.625 53.9489C743.728 53.9489 744.68 54.1856 745.48 54.6591C746.285 55.1278 746.905 55.786 747.341 56.6335C747.776 57.4763 747.994 58.4612 747.994 59.5881C747.994 60.7055 747.776 61.688 747.341 62.5355C746.905 63.3783 746.285 64.0365 745.48 64.5099C744.68 64.9787 743.728 65.2131 742.625 65.2131ZM742.639 62.8693C743.141 62.8693 743.56 62.7273 743.896 62.4432C744.232 62.1544 744.485 61.7614 744.656 61.2642C744.831 60.767 744.919 60.2012 744.919 59.5668C744.919 58.9323 744.831 58.3665 744.656 57.8693C744.485 57.3722 744.232 56.9792 743.896 56.6903C743.56 56.4015 743.141 56.2571 742.639 56.2571C742.132 56.2571 741.706 56.4015 741.36 56.6903C741.02 56.9792 740.761 57.3722 740.586 57.8693C740.416 58.3665 740.331 58.9323 740.331 59.5668C740.331 60.2012 740.416 60.767 740.586 61.2642C740.761 61.7614 741.02 62.1544 741.36 62.4432C741.706 62.7273 742.132 62.8693 742.639 62.8693ZM756.957 60.3551V54.0909H759.983V65H757.078V63.0185H756.964C756.718 63.6577 756.308 64.1714 755.735 64.5597C755.167 64.9479 754.474 65.142 753.654 65.142C752.925 65.142 752.284 64.9763 751.73 64.6449C751.176 64.3134 750.743 63.8423 750.43 63.2315C750.122 62.6207 749.966 61.8892 749.961 61.0369V54.0909H752.987V60.4972C752.992 61.1411 753.164 61.6501 753.505 62.0241C753.846 62.3982 754.303 62.5852 754.876 62.5852C755.241 62.5852 755.582 62.5024 755.899 62.3366C756.216 62.1662 756.472 61.9152 756.666 61.5838C756.865 61.2524 756.962 60.8428 756.957 60.3551ZM766.423 65.1776C765.594 65.1776 764.844 64.9645 764.171 64.5384C763.504 64.1075 762.973 63.4754 762.58 62.642C762.192 61.804 761.998 60.7765 761.998 59.5597C761.998 58.3097 762.199 57.2704 762.602 56.4418C763.004 55.6084 763.539 54.9858 764.207 54.5739C764.879 54.1572 765.615 53.9489 766.415 53.9489C767.026 53.9489 767.535 54.053 767.942 54.2614C768.354 54.465 768.686 54.7206 768.937 55.0284C769.192 55.3314 769.387 55.6297 769.519 55.9233H769.612V50.4545H772.63V65H769.647V63.2528H769.519C769.377 63.5559 769.176 63.8565 768.915 64.1548C768.66 64.4484 768.326 64.6922 767.914 64.8864C767.507 65.0805 767.01 65.1776 766.423 65.1776ZM767.381 62.7699C767.869 62.7699 768.281 62.6373 768.617 62.3722C768.958 62.1023 769.219 61.7259 769.398 61.2429C769.583 60.7599 769.675 60.1941 769.675 59.5455C769.675 58.8968 769.585 58.3333 769.406 57.8551C769.226 57.3769 768.965 57.0076 768.624 56.7472C768.283 56.4867 767.869 56.3565 767.381 56.3565C766.884 56.3565 766.465 56.4915 766.124 56.7614C765.783 57.0312 765.525 57.4053 765.35 57.8835C765.175 58.3617 765.087 58.9157 765.087 59.5455C765.087 60.1799 765.175 60.741 765.35 61.2287C765.53 61.7116 765.788 62.0904 766.124 62.3651C766.465 62.6349 766.884 62.7699 767.381 62.7699ZM787.694 54.6378C787.637 54.0649 787.393 53.6198 786.962 53.3026C786.531 52.9853 785.947 52.8267 785.208 52.8267C784.706 52.8267 784.282 52.8977 783.937 53.0398C783.591 53.1771 783.326 53.3688 783.141 53.6151C782.961 53.8613 782.871 54.1406 782.871 54.4531C782.862 54.7135 782.916 54.9408 783.035 55.1349C783.158 55.3291 783.326 55.4972 783.539 55.6392C783.752 55.7765 783.998 55.8973 784.278 56.0014C784.557 56.1009 784.855 56.1861 785.173 56.2571L786.479 56.5696C787.114 56.7116 787.696 56.901 788.227 57.1378C788.757 57.3745 789.216 57.6657 789.604 58.0114C789.993 58.357 790.293 58.7642 790.506 59.233C790.724 59.7017 790.835 60.2391 790.84 60.8452C790.835 61.7353 790.608 62.5071 790.158 63.1605C789.713 63.8092 789.069 64.3134 788.227 64.6733C787.388 65.0284 786.378 65.206 785.194 65.206C784.02 65.206 782.997 65.026 782.126 64.6662C781.259 64.3063 780.582 63.7737 780.094 63.0682C779.612 62.358 779.358 61.4796 779.335 60.4332H782.31C782.344 60.9209 782.483 61.3281 782.729 61.6548C782.98 61.9768 783.314 62.2206 783.731 62.3864C784.152 62.5473 784.628 62.6278 785.158 62.6278C785.679 62.6278 786.131 62.5521 786.515 62.4006C786.903 62.2491 787.204 62.0384 787.417 61.7685C787.63 61.4986 787.737 61.1884 787.737 60.8381C787.737 60.5114 787.639 60.2367 787.445 60.0142C787.256 59.7917 786.977 59.6023 786.607 59.446C786.243 59.2898 785.795 59.1477 785.265 59.0199L783.681 58.6222C782.455 58.3239 781.487 57.8575 780.776 57.223C780.066 56.5885 779.713 55.7339 779.718 54.6591C779.713 53.7784 779.948 53.009 780.421 52.3509C780.899 51.6927 781.555 51.179 782.388 50.8097C783.222 50.4403 784.169 50.2557 785.229 50.2557C786.309 50.2557 787.251 50.4403 788.056 50.8097C788.866 51.179 789.496 51.6927 789.945 52.3509C790.395 53.009 790.627 53.7713 790.641 54.6378H787.694ZM792.852 69.0909V54.0909H795.835V55.9233H795.97C796.102 55.6297 796.294 55.3314 796.545 55.0284C796.801 54.7206 797.132 54.465 797.539 54.2614C797.951 54.053 798.463 53.9489 799.074 53.9489C799.869 53.9489 800.603 54.1572 801.275 54.5739C801.948 54.9858 802.485 55.6084 802.887 56.4418C803.29 57.2704 803.491 58.3097 803.491 59.5597C803.491 60.7765 803.295 61.804 802.902 62.642C802.513 63.4754 801.983 64.1075 801.311 64.5384C800.643 64.9645 799.895 65.1776 799.066 65.1776C798.479 65.1776 797.98 65.0805 797.568 64.8864C797.161 64.6922 796.827 64.4484 796.566 64.1548C796.306 63.8565 796.107 63.5559 795.97 63.2528H795.877V69.0909H792.852ZM795.814 59.5455C795.814 60.1941 795.904 60.7599 796.083 61.2429C796.263 61.7259 796.524 62.1023 796.865 62.3722C797.206 62.6373 797.62 62.7699 798.108 62.7699C798.6 62.7699 799.017 62.6349 799.358 62.3651C799.699 62.0904 799.957 61.7116 800.132 61.2287C800.312 60.741 800.402 60.1799 800.402 59.5455C800.402 58.9157 800.314 58.3617 800.139 57.8835C799.964 57.4053 799.706 57.0312 799.365 56.7614C799.024 56.4915 798.605 56.3565 798.108 56.3565C797.615 56.3565 797.199 56.4867 796.858 56.7472C796.521 57.0076 796.263 57.3769 796.083 57.8551C795.904 58.3333 795.814 58.8968 795.814 59.5455ZM808.619 65.206C807.923 65.206 807.303 65.0852 806.758 64.8438C806.214 64.5975 805.783 64.2353 805.466 63.7571C805.153 63.2741 804.997 62.6728 804.997 61.9531C804.997 61.3471 805.108 60.8381 805.331 60.4261C805.553 60.0142 805.856 59.6828 806.24 59.4318C806.623 59.1809 807.059 58.9915 807.547 58.8636C808.039 58.7358 808.555 58.6458 809.095 58.5938C809.729 58.5275 810.241 58.4659 810.629 58.4091C811.017 58.3475 811.299 58.2576 811.474 58.1392C811.649 58.0208 811.737 57.8456 811.737 57.6136V57.571C811.737 57.1212 811.595 56.7732 811.311 56.527C811.031 56.2808 810.634 56.1577 810.118 56.1577C809.573 56.1577 809.14 56.2784 808.818 56.5199C808.496 56.7566 808.283 57.0549 808.179 57.4148L805.38 57.1875C805.522 56.5246 805.802 55.9517 806.218 55.4688C806.635 54.9811 807.172 54.607 807.831 54.3466C808.493 54.0814 809.261 53.9489 810.132 53.9489C810.738 53.9489 811.318 54.0199 811.872 54.1619C812.431 54.304 812.925 54.5241 813.356 54.8224C813.792 55.1207 814.135 55.5043 814.386 55.973C814.637 56.437 814.762 56.9934 814.762 57.642V65H811.893V63.4872H811.808C811.633 63.8281 811.398 64.1288 811.105 64.3892C810.811 64.6449 810.458 64.8461 810.047 64.9929C809.635 65.1349 809.159 65.206 808.619 65.206ZM809.485 63.1179C809.931 63.1179 810.324 63.0303 810.664 62.8551C811.005 62.6752 811.273 62.4337 811.467 62.1307C811.661 61.8277 811.758 61.4844 811.758 61.1009V59.9432C811.663 60.0047 811.533 60.0616 811.368 60.1136C811.207 60.161 811.024 60.206 810.821 60.2486C810.617 60.2865 810.413 60.322 810.21 60.3551C810.006 60.3835 809.822 60.4096 809.656 60.4332C809.301 60.4853 808.991 60.5682 808.725 60.6818C808.46 60.7955 808.254 60.9493 808.108 61.1435C807.961 61.3329 807.887 61.5696 807.887 61.8537C807.887 62.2656 808.037 62.5805 808.335 62.7983C808.638 63.0114 809.021 63.1179 809.485 63.1179ZM817.11 65V54.0909H820.043V55.9943H820.157C820.355 55.3172 820.689 54.8059 821.158 54.4602C821.627 54.1098 822.167 53.9347 822.777 53.9347C822.929 53.9347 823.092 53.9441 823.267 53.9631C823.443 53.982 823.596 54.008 823.729 54.0412V56.7259C823.587 56.6832 823.391 56.6454 823.14 56.6122C822.889 56.5791 822.659 56.5625 822.451 56.5625C822.006 56.5625 821.608 56.6596 821.257 56.8537C820.912 57.0431 820.637 57.3082 820.434 57.6491C820.235 57.9901 820.135 58.383 820.135 58.8281V65H817.11ZM828.035 61.8608L828.042 58.2315H828.482L831.977 54.0909H835.45L830.755 59.5739H830.038L828.035 61.8608ZM825.293 65V50.4545H828.319V65H825.293ZM832.112 65L828.901 60.2486L830.918 58.1108L835.656 65H832.112ZM841.62 65V50.4545H851.421V52.9901H844.695V56.456H850.917V58.9915H844.695V62.4645H851.449V65H841.62ZM857.829 65.1776C857 65.1776 856.25 64.9645 855.577 64.5384C854.91 64.1075 854.379 63.4754 853.987 62.642C853.598 61.804 853.404 60.7765 853.404 59.5597C853.404 58.3097 853.605 57.2704 854.008 56.4418C854.41 55.6084 854.945 54.9858 855.613 54.5739C856.285 54.1572 857.022 53.9489 857.822 53.9489C858.433 53.9489 858.942 54.053 859.349 54.2614C859.761 54.465 860.092 54.7206 860.343 55.0284C860.599 55.3314 860.793 55.6297 860.925 55.9233H861.018V50.4545H864.036V65H861.053V63.2528H860.925C860.783 63.5559 860.582 63.8565 860.322 64.1548C860.066 64.4484 859.732 64.6922 859.32 64.8864C858.913 65.0805 858.416 65.1776 857.829 65.1776ZM858.788 62.7699C859.275 62.7699 859.687 62.6373 860.023 62.3722C860.364 62.1023 860.625 61.7259 860.805 61.2429C860.989 60.7599 861.082 60.1941 861.082 59.5455C861.082 58.8968 860.992 58.3333 860.812 57.8551C860.632 57.3769 860.371 57.0076 860.031 56.7472C859.69 56.4867 859.275 56.3565 858.788 56.3565C858.29 56.3565 857.871 56.4915 857.531 56.7614C857.19 57.0312 856.932 57.4053 856.756 57.8835C856.581 58.3617 856.494 58.9157 856.494 59.5455C856.494 60.1799 856.581 60.741 856.756 61.2287C856.936 61.7116 857.194 62.0904 857.531 62.3651C857.871 62.6349 858.29 62.7699 858.788 62.7699ZM871.439 69.3182C870.458 69.3182 869.618 69.1832 868.917 68.9134C868.221 68.6482 867.667 68.286 867.255 67.8267C866.843 67.3674 866.576 66.8513 866.453 66.2784L869.251 65.902C869.336 66.1198 869.471 66.3234 869.656 66.5128C869.841 66.7022 870.084 66.8537 870.387 66.9673C870.695 67.0857 871.069 67.1449 871.51 67.1449C872.168 67.1449 872.71 66.9839 873.136 66.6619C873.567 66.3447 873.782 65.812 873.782 65.0639V63.0682H873.654C873.522 63.3712 873.323 63.6577 873.058 63.9276C872.793 64.1974 872.452 64.4176 872.035 64.5881C871.618 64.7585 871.121 64.8438 870.544 64.8438C869.725 64.8438 868.979 64.6544 868.306 64.2756C867.639 63.892 867.106 63.3073 866.708 62.5213C866.315 61.7306 866.119 60.7315 866.119 59.5241C866.119 58.2884 866.32 57.2562 866.723 56.4276C867.125 55.599 867.66 54.9787 868.328 54.5668C869 54.1548 869.736 53.9489 870.537 53.9489C871.147 53.9489 871.659 54.053 872.071 54.2614C872.483 54.465 872.814 54.7206 873.065 55.0284C873.321 55.3314 873.517 55.6297 873.654 55.9233H873.768V54.0909H876.772V65.1065C876.772 66.0346 876.545 66.8111 876.091 67.4361C875.636 68.0611 875.006 68.5298 874.201 68.8423C873.401 69.1596 872.48 69.3182 871.439 69.3182ZM871.502 62.571C871.99 62.571 872.402 62.4503 872.738 62.2088C873.079 61.9626 873.34 61.6122 873.52 61.1577C873.704 60.6984 873.797 60.1491 873.797 59.5099C873.797 58.8707 873.707 58.3168 873.527 57.848C873.347 57.3745 873.086 57.0076 872.745 56.7472C872.404 56.4867 871.99 56.3565 871.502 56.3565C871.005 56.3565 870.586 56.4915 870.245 56.7614C869.904 57.0265 869.646 57.3958 869.471 57.8693C869.296 58.3428 869.208 58.8897 869.208 59.5099C869.208 60.1397 869.296 60.6842 869.471 61.1435C869.651 61.598 869.909 61.9508 870.245 62.2017C870.586 62.4479 871.005 62.571 871.502 62.571ZM884.152 65.2131C883.029 65.2131 882.064 64.9858 881.254 64.5312C880.449 64.072 879.829 63.4233 879.393 62.5852C878.958 61.7424 878.74 60.7457 878.74 59.5952C878.74 58.473 878.958 57.4882 879.393 56.6406C879.829 55.7931 880.442 55.1326 881.233 54.6591C882.028 54.1856 882.961 53.9489 884.031 53.9489C884.751 53.9489 885.421 54.0649 886.041 54.2969C886.666 54.5241 887.21 54.8674 887.674 55.3267C888.143 55.786 888.508 56.3636 888.768 57.0597C889.029 57.7509 889.159 58.5606 889.159 59.4886V60.3196H879.947V58.4446H886.311C886.311 58.009 886.216 57.6231 886.027 57.2869C885.837 56.9508 885.574 56.688 885.238 56.4986C884.907 56.3045 884.521 56.2074 884.081 56.2074C883.621 56.2074 883.214 56.3139 882.859 56.527C882.509 56.7353 882.234 57.017 882.035 57.3722C881.836 57.7225 881.734 58.1132 881.73 58.544V60.3267C881.73 60.8665 881.829 61.3329 882.028 61.7259C882.232 62.1188 882.518 62.4219 882.887 62.6349C883.257 62.848 883.695 62.9545 884.201 62.9545C884.538 62.9545 884.845 62.9072 885.125 62.8125C885.404 62.7178 885.643 62.5758 885.842 62.3864C886.041 62.197 886.192 61.965 886.297 61.6903L889.095 61.875C888.953 62.5473 888.662 63.1345 888.221 63.6364C887.786 64.1335 887.222 64.5218 886.531 64.8011C885.844 65.0758 885.051 65.2131 884.152 65.2131Z" fill="white"/>
<path d="M298.264 65V50.4545H301.339V56.8679H301.531L306.766 50.4545H310.452L305.054 56.9673L310.516 65H306.837L302.852 59.0199L301.339 60.8665V65H298.264ZM318.309 60.3551V54.0909H321.334V65H318.429V63.0185H318.316C318.069 63.6577 317.66 64.1714 317.087 64.5597C316.519 64.9479 315.825 65.142 315.006 65.142C314.277 65.142 313.635 64.9763 313.081 64.6449C312.527 64.3134 312.094 63.8423 311.782 63.2315C311.474 62.6207 311.318 61.8892 311.313 61.0369V54.0909H314.338V60.4972C314.343 61.1411 314.516 61.6501 314.857 62.0241C315.198 62.3982 315.655 62.5852 316.228 62.5852C316.592 62.5852 316.933 62.5024 317.25 62.3366C317.568 62.1662 317.823 61.9152 318.017 61.5838C318.216 61.2524 318.313 60.8428 318.309 60.3551ZM323.811 65V50.4545H326.837V55.9233H326.929C327.062 55.6297 327.253 55.3314 327.504 55.0284C327.76 54.7206 328.091 54.465 328.499 54.2614C328.911 54.053 329.422 53.9489 330.033 53.9489C330.828 53.9489 331.562 54.1572 332.234 54.5739C332.907 54.9858 333.444 55.6084 333.847 56.4418C334.249 57.2704 334.45 58.3097 334.45 59.5597C334.45 60.7765 334.254 61.804 333.861 62.642C333.473 63.4754 332.942 64.1075 332.27 64.5384C331.602 64.9645 330.854 65.1776 330.026 65.1776C329.438 65.1776 328.939 65.0805 328.527 64.8864C328.12 64.6922 327.786 64.4484 327.526 64.1548C327.265 63.8565 327.066 63.5559 326.929 63.2528H326.794V65H323.811ZM326.773 59.5455C326.773 60.1941 326.863 60.7599 327.043 61.2429C327.223 61.7259 327.483 62.1023 327.824 62.3722C328.165 62.6373 328.579 62.7699 329.067 62.7699C329.559 62.7699 329.976 62.6349 330.317 62.3651C330.658 62.0904 330.916 61.7116 331.091 61.2287C331.271 60.741 331.361 60.1799 331.361 59.5455C331.361 58.9157 331.273 58.3617 331.098 57.8835C330.923 57.4053 330.665 57.0312 330.324 56.7614C329.983 56.4915 329.564 56.3565 329.067 56.3565C328.574 56.3565 328.158 56.4867 327.817 56.7472C327.481 57.0076 327.223 57.3769 327.043 57.8551C326.863 58.3333 326.773 58.8968 326.773 59.5455ZM341.441 65.2131C340.319 65.2131 339.353 64.9858 338.543 64.5312C337.738 64.072 337.118 63.4233 336.682 62.5852C336.247 61.7424 336.029 60.7457 336.029 59.5952C336.029 58.473 336.247 57.4882 336.682 56.6406C337.118 55.7931 337.731 55.1326 338.522 54.6591C339.317 54.1856 340.25 53.9489 341.32 53.9489C342.04 53.9489 342.71 54.0649 343.33 54.2969C343.955 54.5241 344.499 54.8674 344.963 55.3267C345.432 55.786 345.797 56.3636 346.057 57.0597C346.318 57.7509 346.448 58.5606 346.448 59.4886V60.3196H337.236V58.4446H343.6C343.6 58.009 343.505 57.6231 343.316 57.2869C343.126 56.9508 342.864 56.688 342.527 56.4986C342.196 56.3045 341.81 56.2074 341.37 56.2074C340.91 56.2074 340.503 56.3139 340.148 56.527C339.798 56.7353 339.523 57.017 339.324 57.3722C339.125 57.7225 339.024 58.1132 339.019 58.544V60.3267C339.019 60.8665 339.118 61.3329 339.317 61.7259C339.521 62.1188 339.807 62.4219 340.176 62.6349C340.546 62.848 340.984 62.9545 341.49 62.9545C341.827 62.9545 342.134 62.9072 342.414 62.8125C342.693 62.7178 342.932 62.5758 343.131 62.3864C343.33 62.197 343.481 61.965 343.586 61.6903L346.384 61.875C346.242 62.5473 345.951 63.1345 345.51 63.6364C345.075 64.1335 344.511 64.5218 343.82 64.8011C343.133 65.0758 342.34 65.2131 341.441 65.2131ZM365.942 55.5469H362.831C362.774 55.1444 362.658 54.7869 362.483 54.4744C362.308 54.1572 362.083 53.8873 361.808 53.6648C361.534 53.4422 361.216 53.2718 360.857 53.1534C360.501 53.035 360.116 52.9759 359.699 52.9759C358.946 52.9759 358.29 53.1629 357.732 53.5369C357.173 53.9062 356.74 54.446 356.432 55.1562C356.124 55.8617 355.97 56.7187 355.97 57.7273C355.97 58.7642 356.124 59.6354 356.432 60.3409C356.744 61.0464 357.18 61.5791 357.739 61.9389C358.297 62.2988 358.944 62.4787 359.678 62.4787C360.089 62.4787 360.471 62.4242 360.821 62.3153C361.176 62.2064 361.491 62.0478 361.766 61.8395C362.04 61.6264 362.268 61.3684 362.447 61.0653C362.632 60.7623 362.76 60.4167 362.831 60.0284L365.942 60.0426C365.861 60.7102 365.66 61.3542 365.338 61.9744C365.021 62.59 364.592 63.1416 364.053 63.6293C363.518 64.1122 362.878 64.4957 362.135 64.7798C361.396 65.0592 360.561 65.1989 359.628 65.1989C358.33 65.1989 357.17 64.9053 356.148 64.3182C355.13 63.7311 354.325 62.8812 353.733 61.7685C353.146 60.6558 352.852 59.3087 352.852 57.7273C352.852 56.1411 353.151 54.7917 353.747 53.679C354.344 52.5663 355.153 51.7187 356.176 51.1364C357.199 50.5492 358.349 50.2557 359.628 50.2557C360.471 50.2557 361.252 50.3741 361.972 50.6108C362.696 50.8475 363.338 51.1932 363.896 51.6477C364.455 52.0975 364.91 52.6491 365.26 53.3026C365.615 53.956 365.842 54.7041 365.942 55.5469ZM373.019 65.2131C371.916 65.2131 370.962 64.9787 370.157 64.5099C369.357 64.0365 368.739 63.3783 368.303 62.5355C367.868 61.688 367.65 60.7055 367.65 59.5881C367.65 58.4612 367.868 57.4763 368.303 56.6335C368.739 55.786 369.357 55.1278 370.157 54.6591C370.962 54.1856 371.916 53.9489 373.019 53.9489C374.122 53.9489 375.074 54.1856 375.874 54.6591C376.679 55.1278 377.299 55.786 377.735 56.6335C378.171 57.4763 378.388 58.4612 378.388 59.5881C378.388 60.7055 378.171 61.688 377.735 62.5355C377.299 63.3783 376.679 64.0365 375.874 64.5099C375.074 64.9787 374.122 65.2131 373.019 65.2131ZM373.033 62.8693C373.535 62.8693 373.954 62.7273 374.29 62.4432C374.627 62.1544 374.88 61.7614 375.05 61.2642C375.226 60.767 375.313 60.2012 375.313 59.5668C375.313 58.9323 375.226 58.3665 375.05 57.8693C374.88 57.3722 374.627 56.9792 374.29 56.6903C373.954 56.4015 373.535 56.2571 373.033 56.2571C372.527 56.2571 372.101 56.4015 371.755 56.6903C371.414 56.9792 371.156 57.3722 370.981 57.8693C370.81 58.3665 370.725 58.9323 370.725 59.5668C370.725 60.2012 370.81 60.767 370.981 61.2642C371.156 61.7614 371.414 62.1544 371.755 62.4432C372.101 62.7273 372.527 62.8693 373.033 62.8693ZM380.356 65V54.0909H383.289V55.9943H383.403C383.602 55.3172 383.935 54.8059 384.404 54.4602C384.873 54.1098 385.413 53.9347 386.023 53.9347C386.175 53.9347 386.338 53.9441 386.513 53.9631C386.689 53.982 386.843 54.008 386.975 54.0412V56.7259C386.833 56.6832 386.637 56.6454 386.386 56.6122C386.135 56.5791 385.905 56.5625 385.697 56.5625C385.252 56.5625 384.854 56.6596 384.504 56.8537C384.158 57.0431 383.883 57.3082 383.68 57.6491C383.481 57.9901 383.381 58.383 383.381 58.8281V65H380.356ZM393.003 65.2131C391.881 65.2131 390.915 64.9858 390.105 64.5312C389.301 64.072 388.68 63.4233 388.245 62.5852C387.809 61.7424 387.591 60.7457 387.591 59.5952C387.591 58.473 387.809 57.4882 388.245 56.6406C388.68 55.7931 389.293 55.1326 390.084 54.6591C390.88 54.1856 391.812 53.9489 392.882 53.9489C393.602 53.9489 394.272 54.0649 394.892 54.2969C395.517 54.5241 396.062 54.8674 396.526 55.3267C396.995 55.786 397.359 56.3636 397.62 57.0597C397.88 57.7509 398.01 58.5606 398.01 59.4886V60.3196H388.799V58.4446H395.162C395.162 58.009 395.068 57.6231 394.878 57.2869C394.689 56.9508 394.426 56.688 394.09 56.4986C393.758 56.3045 393.373 56.2074 392.932 56.2074C392.473 56.2074 392.066 56.3139 391.711 56.527C391.36 56.7353 391.086 57.017 390.887 57.3722C390.688 57.7225 390.586 58.1132 390.581 58.544V60.3267C390.581 60.8665 390.681 61.3329 390.88 61.7259C391.083 62.1188 391.37 62.4219 391.739 62.6349C392.108 62.848 392.546 62.9545 393.053 62.9545C393.389 62.9545 393.697 62.9072 393.976 62.8125C394.256 62.7178 394.495 62.5758 394.694 62.3864C394.892 62.197 395.044 61.965 395.148 61.6903L397.946 61.875C397.804 62.5473 397.513 63.1345 397.073 63.6364C396.637 64.1335 396.074 64.5218 395.382 64.8011C394.696 65.0758 393.903 65.2131 393.003 65.2131ZM403.01 50.4545V65H399.985V50.4545H403.01ZM405.434 65V54.0909H408.46V65H405.434ZM406.954 52.6847C406.504 52.6847 406.118 52.5355 405.796 52.2372C405.479 51.9342 405.32 51.572 405.32 51.1506C405.32 50.7339 405.479 50.3764 405.796 50.0781C406.118 49.7751 406.504 49.6236 406.954 49.6236C407.404 49.6236 407.787 49.7751 408.104 50.0781C408.426 50.3764 408.587 50.7339 408.587 51.1506C408.587 51.572 408.426 51.9342 408.104 52.2372C407.787 52.5355 407.404 52.6847 406.954 52.6847ZM416.686 54.0909V56.3636H410.116V54.0909H416.686ZM411.608 51.4773H414.633V61.6477C414.633 61.9271 414.676 62.1449 414.761 62.3011C414.846 62.4527 414.965 62.5592 415.116 62.6207C415.272 62.6823 415.452 62.7131 415.656 62.7131C415.798 62.7131 415.94 62.7012 416.082 62.6776C416.224 62.6491 416.333 62.6278 416.409 62.6136L416.885 64.8651C416.733 64.9124 416.52 64.9669 416.245 65.0284C415.971 65.0947 415.637 65.1349 415.244 65.1491C414.515 65.1776 413.876 65.0805 413.326 64.858C412.782 64.6354 412.358 64.2898 412.055 63.821C411.752 63.3523 411.603 62.7604 411.608 62.0455V51.4773ZM423.511 65.2131C422.389 65.2131 421.423 64.9858 420.613 64.5312C419.808 64.072 419.188 63.4233 418.752 62.5852C418.317 61.7424 418.099 60.7457 418.099 59.5952C418.099 58.473 418.317 57.4882 418.752 56.6406C419.188 55.7931 419.801 55.1326 420.592 54.6591C421.387 54.1856 422.32 53.9489 423.39 53.9489C424.11 53.9489 424.78 54.0649 425.4 54.2969C426.025 54.5241 426.57 54.8674 427.034 55.3267C427.502 55.786 427.867 56.3636 428.127 57.0597C428.388 57.7509 428.518 58.5606 428.518 59.4886V60.3196H419.306V58.4446H425.67C425.67 58.009 425.575 57.6231 425.386 57.2869C425.197 56.9508 424.934 56.688 424.598 56.4986C424.266 56.3045 423.88 56.2074 423.44 56.2074C422.981 56.2074 422.574 56.3139 422.218 56.527C421.868 56.7353 421.593 57.017 421.395 57.3722C421.196 57.7225 421.094 58.1132 421.089 58.544V60.3267C421.089 60.8665 421.189 61.3329 421.387 61.7259C421.591 62.1188 421.877 62.4219 422.247 62.6349C422.616 62.848 423.054 62.9545 423.561 62.9545C423.897 62.9545 424.205 62.9072 424.484 62.8125C424.763 62.7178 425.002 62.5758 425.201 62.3864C425.4 62.197 425.552 61.965 425.656 61.6903L428.454 61.875C428.312 62.5473 428.021 63.1345 427.581 63.6364C427.145 64.1335 426.582 64.5218 425.89 64.8011C425.204 65.0758 424.411 65.2131 423.511 65.2131Z" fill="white"/>
<path d="M541.108 65V63.1747L548.366 52.9901H541.094V50.4545H552.23V52.2798L544.964 62.4645H552.244V65H541.108ZM557.658 65.206C556.962 65.206 556.342 65.0852 555.797 64.8438C555.253 64.5975 554.822 64.2353 554.505 63.7571C554.192 63.2741 554.036 62.6728 554.036 61.9531C554.036 61.3471 554.147 60.8381 554.37 60.4261C554.592 60.0142 554.895 59.6828 555.279 59.4318C555.662 59.1809 556.098 58.9915 556.586 58.8636C557.078 58.7358 557.594 58.6458 558.134 58.5938C558.768 58.5275 559.28 58.4659 559.668 58.4091C560.056 58.3475 560.338 58.2576 560.513 58.1392C560.688 58.0208 560.776 57.8456 560.776 57.6136V57.571C560.776 57.1212 560.634 56.7732 560.35 56.527C560.07 56.2808 559.673 56.1577 559.157 56.1577C558.612 56.1577 558.179 56.2784 557.857 56.5199C557.535 56.7566 557.322 57.0549 557.218 57.4148L554.419 57.1875C554.561 56.5246 554.841 55.9517 555.257 55.4688C555.674 54.9811 556.212 54.607 556.87 54.3466C557.533 54.0814 558.3 53.9489 559.171 53.9489C559.777 53.9489 560.357 54.0199 560.911 54.1619C561.47 54.304 561.964 54.5241 562.395 54.8224C562.831 55.1207 563.174 55.5043 563.425 55.973C563.676 56.437 563.801 56.9934 563.801 57.642V65H560.932V63.4872H560.847C560.672 63.8281 560.437 64.1288 560.144 64.3892C559.85 64.6449 559.498 64.8461 559.086 64.9929C558.674 65.1349 558.198 65.206 557.658 65.206ZM558.525 63.1179C558.97 63.1179 559.363 63.0303 559.703 62.8551C560.044 62.6752 560.312 62.4337 560.506 62.1307C560.7 61.8277 560.797 61.4844 560.797 61.1009V59.9432C560.703 60.0047 560.572 60.0616 560.407 60.1136C560.246 60.161 560.063 60.206 559.86 60.2486C559.656 60.2865 559.453 60.322 559.249 60.3551C559.045 60.3835 558.861 60.4096 558.695 60.4332C558.34 60.4853 558.03 60.5682 557.765 60.6818C557.499 60.7955 557.293 60.9493 557.147 61.1435C557 61.3329 556.926 61.5696 556.926 61.8537C556.926 62.2656 557.076 62.5805 557.374 62.7983C557.677 63.0114 558.06 63.1179 558.525 63.1179ZM566.149 69.0909V54.0909H569.132V55.9233H569.267C569.399 55.6297 569.591 55.3314 569.842 55.0284C570.098 54.7206 570.429 54.465 570.836 54.2614C571.248 54.053 571.76 53.9489 572.37 53.9489C573.166 53.9489 573.9 54.1572 574.572 54.5739C575.244 54.9858 575.782 55.6084 576.184 56.4418C576.587 57.2704 576.788 58.3097 576.788 59.5597C576.788 60.7765 576.592 61.804 576.199 62.642C575.81 63.4754 575.28 64.1075 574.608 64.5384C573.94 64.9645 573.192 65.1776 572.363 65.1776C571.776 65.1776 571.277 65.0805 570.865 64.8864C570.458 64.6922 570.124 64.4484 569.863 64.1548C569.603 63.8565 569.404 63.5559 569.267 63.2528H569.174V69.0909H566.149ZM569.11 59.5455C569.11 60.1941 569.2 60.7599 569.38 61.2429C569.56 61.7259 569.821 62.1023 570.162 62.3722C570.502 62.6373 570.917 62.7699 571.404 62.7699C571.897 62.7699 572.314 62.6349 572.654 62.3651C572.995 62.0904 573.253 61.7116 573.429 61.2287C573.609 60.741 573.699 60.1799 573.699 59.5455C573.699 58.9157 573.611 58.3617 573.436 57.8835C573.261 57.4053 573.002 57.0312 572.662 56.7614C572.321 56.4915 571.902 56.3565 571.404 56.3565C570.912 56.3565 570.495 56.4867 570.154 56.7472C569.818 57.0076 569.56 57.3769 569.38 57.8551C569.2 58.3333 569.11 58.8968 569.11 59.5455Z" fill="white"/>
</g>
<defs>
<filter id="filter0_d_0_1" x="456.425" y="8.27686" width="179.674" height="108.213" filterUnits="userSpaceOnUse" color-interpolation-filters="sRGB">
<feFlood flood-opacity="0" result="BackgroundImageFix"/>
<feColorMatrix in="SourceAlpha" type="matrix" values="0 0 0 0 0 0 0 0 0 0 0 0 0 0 0 0 0 0 127 0" result="hardAlpha"/>
<feOffset dy="5"/>
<feGaussianBlur stdDeviation="7"/>
<feComposite in2="hardAlpha" operator="out"/>
<feColorMatrix type="matrix" values="0 0 0 0 0 0 0 0 0 0 0 0 0 0 0 0 0 0 0.13 0"/>
<feBlend mode="normal" in2="BackgroundImageFix" result="effect1_dropShadow_0_1"/>
<feBlend mode="normal" in="SourceGraphic" in2="effect1_dropShadow_0_1" result="shape"/>
</filter>
<filter id="filter1_d_0_1" x="-2.15048" y="8.27686" width="223.517" height="108.213" filterUnits="userSpaceOnUse" color-interpolation-filters="sRGB">
<feFlood flood-opacity="0" result="BackgroundImageFix"/>
<feColorMatrix in="SourceAlpha" type="matrix" values="0 0 0 0 0 0 0 0 0 0 0 0 0 0 0 0 0 0 127 0" result="hardAlpha"/>
<feOffset dy="5"/>
<feGaussianBlur stdDeviation="7"/>
<feComposite in2="hardAlpha" operator="out"/>
<feColorMatrix type="matrix" values="0 0 0 0 0 0 0 0 0 0 0 0 0 0 0 0 0 0 0.13 0"/>
<feBlend mode="normal" in2="BackgroundImageFix" result="effect1_dropShadow_0_1"/>
<feBlend mode="normal" in="SourceGraphic" in2="effect1_dropShadow_0_1" result="shape"/>
</filter>
<filter id="filter2_d_0_1" x="217.065" y="8.27686" width="243.661" height="108.213" filterUnits="userSpaceOnUse" color-interpolation-filters="sRGB">
<feFlood flood-opacity="0" result="BackgroundImageFix"/>
<feColorMatrix in="SourceAlpha" type="matrix" values="0 0 0 0 0 0 0 0 0 0 0 0 0 0 0 0 0 0 127 0" result="hardAlpha"/>
<feOffset dy="5"/>
<feGaussianBlur stdDeviation="7"/>
<feComposite in2="hardAlpha" operator="out"/>
<feColorMatrix type="matrix" values="0 0 0 0 0 0 0 0 0 0 0 0 0 0 0 0 0 0 0.13 0"/>
<feBlend mode="normal" in2="BackgroundImageFix" result="effect1_dropShadow_0_1"/>
<feBlend mode="normal" in="SourceGraphic" in2="effect1_dropShadow_0_1" result="shape"/>
</filter>
<filter id="filter3_d_0_1" x="897.227" y="8.27686" width="242.476" height="108.213" filterUnits="userSpaceOnUse" color-interpolation-filters="sRGB">
<feFlood flood-opacity="0" result="BackgroundImageFix"/>
<feColorMatrix in="SourceAlpha" type="matrix" values="0 0 0 0 0 0 0 0 0 0 0 0 0 0 0 0 0 0 127 0" result="hardAlpha"/>
<feOffset dy="5"/>
<feGaussianBlur stdDeviation="7"/>
<feComposite in2="hardAlpha" operator="out"/>
<feColorMatrix type="matrix" values="0 0 0 0 0 0 0 0 0 0 0 0 0 0 0 0 0 0 0.13 0"/>
<feBlend mode="normal" in2="BackgroundImageFix" result="effect1_dropShadow_0_1"/>
<feBlend mode="normal" in="SourceGraphic" in2="effect1_dropShadow_0_1" result="shape"/>
</filter>
<filter id="filter4_d_0_1" x="631.798" y="8.27686" width="269.73" height="108.213" filterUnits="userSpaceOnUse" color-interpolation-filters="sRGB">
<feFlood flood-opacity="0" result="BackgroundImageFix"/>
<feColorMatrix in="SourceAlpha" type="matrix" values="0 0 0 0 0 0 0 0 0 0 0 0 0 0 0 0 0 0 127 0" result="hardAlpha"/>
<feOffset dy="5"/>
<feGaussianBlur stdDeviation="7"/>
<feComposite in2="hardAlpha" operator="out"/>
<feColorMatrix type="matrix" values="0 0 0 0 0 0 0 0 0 0 0 0 0 0 0 0 0 0 0.13 0"/>
<feBlend mode="normal" in2="BackgroundImageFix" result="effect1_dropShadow_0_1"/>
<feBlend mode="normal" in="SourceGraphic" in2="effect1_dropShadow_0_1" result="shape"/>
</filter>
<filter id="filter5_d_0_1" x="1135.4" y="8.27686" width="173.749" height="108.213" filterUnits="userSpaceOnUse" color-interpolation-filters="sRGB">
<feFlood flood-opacity="0" result="BackgroundImageFix"/>
<feColorMatrix in="SourceAlpha" type="matrix" values="0 0 0 0 0 0 0 0 0 0 0 0 0 0 0 0 0 0 127 0" result="hardAlpha"/>
<feOffset dy="5"/>
<feGaussianBlur stdDeviation="7"/>
<feComposite in2="hardAlpha" operator="out"/>
<feColorMatrix type="matrix" values="0 0 0 0 0 0 0 0 0 0 0 0 0 0 0 0 0 0 0.13 0"/>
<feBlend mode="normal" in2="BackgroundImageFix" result="effect1_dropShadow_0_1"/>
<feBlend mode="normal" in="SourceGraphic" in2="effect1_dropShadow_0_1" result="shape"/>
</filter>
<linearGradient id="paint0_linear_0_1" x1="1173.1" y1="43.6518" x2="1173.1" y2="71.0707" gradientUnits="userSpaceOnUse">
<stop stop-color="#4387FD"/>
<stop offset="1" stop-color="#4683EA"/>
</linearGradient>
<clipPath id="clip0_0_1">
<rect width="1307" height="116" fill="white"/>
</clipPath>
</defs>
</svg>
