<svg viewBox="0 0 58 53" xmlns="http://www.w3.org/2000/svg"><g fill="none"><path fill="#383632" d="M49.3 45.8h-48c-.6 0-1.1-.5-1.1-1.1V1.3C.2.7.7.2 1.3.2h48c.6 0 1.1.5 1.1 1.1v43.4c0 .6-.5 1.1-1.1 1.1zM2.4 43.6h45.8V2.4H2.4v41.2z"></path><path fill="#8D8E8E" d="M33.7 15.1h8.9c.6 0 1.1-.5 1.1-1.1 0-.6-.5-1.1-1.1-1.1h-8.9c-.6 0-1.1.5-1.1 1.1 0 .6.5 1.1 1.1 1.1zm9.6 16H8.7c-.6 0-1.1.5-1.1 1.1 0 .6.5 1.1 1.1 1.1h34.6c.6 0 1.1-.5 1.1-1.1 0-.6-.4-1.1-1.1-1.1z"></path><path fill="#BFBFBF" d="M8 6.9h21.1v19.7H8zM33.7 9h8.9c.6 0 1.1-.5 1.1-1.1 0-.6-.5-1.1-1.1-1.1h-8.9c-.6 0-1.1.5-1.1 1.1 0 .6.5 1.1 1.1 1.1zm0 12.2h8.9c.6 0 1.1-.5 1.1-1.1 0-.6-.5-1.1-1.1-1.1h-8.9c-.6 0-1.1.5-1.1 1.1 0 .6.5 1.1 1.1 1.1zm9.6 15.9H8.7c-.6 0-1.1.5-1.1 1.1 0 .6.5 1.1 1.1 1.1h34.6c.6 0 1.1-.5 1.1-1.1 0-.6-.4-1.1-1.1-1.1z"></path><circle cx="42.5" cy="37.3" r="15" fill="#3AFF7C"></circle><path fill="#FFF" d="M46.1 34.5l-5.6-5.6-2.8 2.8 5.6 5.6-5.6 5.6 2.8 2.8 8.4-8.4z"></path></g></svg>