<svg viewBox="0 0 57 57" xmlns="http://www.w3.org/2000/svg"><g fill="none"><path fill="#F66604" d="M19.7 27.6h16.5c2.6 0 4.7 2.1 4.7 4.7S38.8 37 36.2 37H19.7c-2.6 0-4.7-2.1-4.7-4.7s2.1-4.7 4.7-4.7z"/><path fill="#8C8D8E" d="M27.5 34.6v13.3h5.4z" opacity=".45"/><path fill="#383632" d="M55.2 49.1H1.9c-.6 0-1.1-.5-1.1-1.1V9c0-.6.5-1.1 1.1-1.1.6 0 1.1.5 1.1 1.1v37.9h51v-38c0-.6.5-1.1 1.1-1.1.6 0 1.1.5 1.1 1.1v39c.1.7-.4 1.2-1 1.2z"/><path fill="#FFF" d="m49.6 41-20.2-7c-.6-.2-1.2.4-1 1l7.1 20.2c.2.6 1.1.7 1.4.1l2.4-5c.2-.5.9-.6 1.2-.2l4.4 4.4c.3.3.8.3 1.1 0l2.8-2.8c.3-.3.3-.8 0-1.1l-4.4-4.4c-.4-.4-.3-1 .2-1.2l5-2.4c.7-.4.7-1.3 0-1.6z"/><path fill="#383632" d="M51.3 41.7c0-.8-.5-1.4-1.3-1.7l-20.2-7.1c-.7-.2-1.4-.1-2 .5-.5.5-.7 1.3-.4 2l7.1 20.2c.3.7.9 1.2 1.7 1.3h.1c.7 0 1.4-.4 1.7-1.1l2.2-4.6 4.1 4.1c.7.7 1.9.7 2.7 0l2.8-2.8c.4-.4.6-.8.6-1.3s-.2-1-.6-1.3l-4.1-4.1 4.6-2.2c.6-.5 1-1.2 1-1.9zm-7.1 2.2c-.5.3-.9.8-1 1.4-.1.6.1 1.2.5 1.7l4.2 4.2-2.3 2.3-4.2-4.2c-.4-.4-1.1-.6-1.7-.5-.6.1-1.1.5-1.4 1l-2 4.2-6.6-18.7 18.7 6.6-4.2 2z"/><path fill="#BFBFBF" d="M43.8 17.5H12c-1.7 0-3 1.4-3 3 0 1.7 1.4 3 3 3h31.9c1.7 0 3-1.4 3-3s-1.4-3-3.1-3zM53.7.2H3.4C2 .2.8 1.3.8 2.8V9h55.4V2.8c.1-1.5-1.1-2.6-2.5-2.6z"/><g fill="#FFF" transform="translate(5 3)"><circle cx="1.8" cy="2.1" r="1.2"/><circle cx="5.5" cy="2.1" r="1.2"/><circle cx="9.2" cy="2.1" r="1.2"/></g></g></svg>