<svg viewBox="0 0 63 51" xmlns="http://www.w3.org/2000/svg"><g fill="none"><path fill="#3AFF7C" d="M44.5 33.4l-2.5 5-5.6.9 6.4 8.8c1.6 2.2 4.7 2.7 7 1.1 2.2-1.6 2.7-4.7 1.1-7l-6.4-8.8zm-32.3-9.8L1.1 34.7c-.4.4-.4 1.2 0 1.6.2.2.5.3.8.3.3 0 .6-.1.8-.3l10.2-10.2c.4-.4.4-1.2 0-1.6-.4-.4-.3-1.3-.7-.9zM59 4.2c-.4-.5-1.1-.5-1.6-.1L46.3 14.4c-.5.4.3 1 .7 1.5.2.3-.3.5 0 .5.2 0 .5-.1.7-.3L58.9 5.8c.5-.4.5-1.1.1-1.6zM43.6 19.6l-8.3 8.1-11.1-10.9-8.1 8.3 1.6 1.6 6.5-6.7 11.1 10.8 9.9-9.6z"></path><path fill="#8C8D8E" d="M48.9 39.5l-4.3-6-3.3 4.3-4.9 1.5 1.2 1.6z" opacity="0.45"></path><path fill="#BFBFBF" d="M9.9.5c-3 0-5.4 2.4-5.4 5.4h10.8c0-3-2.4-5.4-5.4-5.4zm48.2 23.3c-2.5 0-4.5 2-4.5 4.5h9c0-2.5-2-4.5-4.5-4.5zM20.6 44.3c-1 0-2 .6-2.5 1.4-.7-3.1-3.4-5.4-6.7-5.4-3.8 0-6.9 3.1-6.9 6.9h19c0-1.6-1.3-2.9-2.9-2.9z"></path><path fill="#383632" d="M30.6 37.8c-4.7 0-9.3-2.2-12.3-6.3-4.9-6.8-3.4-16.3 3.4-21.1C25 8 29 7.1 33 7.7c4 .6 7.5 2.8 9.9 6.1 4.9 6.8 3.4 16.3-3.4 21.1-2.7 2-5.8 2.9-8.9 2.9zm-10.5-7.6c4.2 5.8 12.2 7.1 18 2.9 5.8-4.2 7.1-12.2 2.9-18-2-2.8-5-4.6-8.4-5.2-3.4-.5-6.8.3-9.6 2.3-5.7 4.2-7 12.2-2.9 18z"></path><g fill="#383632"><path d="M46.4 11.2c-3.1-4.2-7.6-7-12.7-7.8-5.1-.9-10.3.4-14.5 3.4-8.7 6.3-10.7 18.5-4.4 27.2 3.8 5.3 9.8 8.1 15.8 8.1 4 0 7.9-1.2 11.4-3.7 4.2-3.1 7-7.6 7.8-12.7.9-5.1-.4-10.3-3.4-14.5zm1.1 14.2c-.7 4.5-3.2 8.5-6.9 11.2-7.7 5.5-18.4 3.8-24-3.9-5.5-7.7-3.8-18.4 3.9-24 3.7-2.7 8.3-3.7 12.8-3 4.5.7 8.5 3.2 11.2 6.9 2.7 3.7 3.7 8.3 3 12.8z"></path><path d="M33 7.7c-4-.6-8 .3-11.3 2.7-6.8 4.8-8.3 14.3-3.4 21.1 3 4.1 7.6 6.3 12.3 6.3 3.1 0 6.2-.9 8.9-2.9 6.8-4.8 8.3-14.3 3.4-21.1-2.4-3.3-5.9-5.5-9.9-6.1zm5.1 25.4c-5.8 4.2-13.8 2.9-18-2.9-4.1-5.8-2.8-13.8 2.9-18 2.8-2 6.2-2.8 9.6-2.3 3.4.6 6.4 2.4 8.4 5.2 4.2 5.8 2.9 13.8-2.9 18z"></path></g><path fill="#3AFF7C" d="M58.9 10.5c-.6 0-1.1-.5-1.1-1.1V5.1h-4.3c-.6 0-1.1-.5-1.1-1.1 0-.6.5-1.1 1.1-1.1h5.4c.6 0 1.1.5 1.1 1.1v5.4c0 .6-.5 1.1-1.1 1.1z"></path></g></svg>