<svg fill="none" viewBox="0 0 76 54" xmlns="http://www.w3.org/2000/svg"><path fill="#F66604" d="M24.443 37.479h-8.63v7.15h8.63v-7.15z"></path><path fill="#BFBFBF" d="M36.023 37.479h-8.63v7.15h8.63v-7.15zm11.57 0h-8.63v7.15h8.63v-7.15z"></path><path fill="#F66604" d="M59.173 37.479h-8.63v7.15h8.63v-7.15zm-34.73-19h-8.63v7.15h8.63v-7.15z"></path><path fill="#BFBFBF" d="M24.443 27.759h-8.63v7.15h8.63v-7.15zm11.58-9.28h-8.63v7.15h8.63v-7.15zm0 9.28h-8.63v7.15h8.63v-7.15zm11.57-9.28h-8.63v7.15h8.63v-7.15z"></path><path fill="#F66604" d="M47.593 27.759h-8.63v7.15h8.63v-7.15z"></path><path fill="#BFBFBF" d="M59.173 18.479h-8.63v7.15h8.63v-7.15z"></path><path fill="#8D8D8E" d="M59.173 27.759h-8.63v7.15h8.63v-7.15z" opacity="0.45"></path><path fill="#393633" d="M10.953 48.659v-5.92c0-4.24.033-8.487.1-12.74v-15.51c0 .32 0-.08.1-.19a.6.6 0 01.5-.27c.61-.06 1.25 0 1.86 0h17.27c7.333 0 14.666-.034 22-.1l6.31-.08 3.29-.05a3.25 3.25 0 011.13 0 .72.72 0 01.3.32 6.575 6.575 0 010 1.83v28.61a22.636 22.636 0 00.09 3.19v.32c0 .11.1.67 0 .1v.06a1.13 1.13 0 002.25 0v.1c.03-.142.05-.286.06-.43.077-.56.113-1.125.11-1.69v-31.85a3.13 3.13 0 00-.78-2.11 3.39 3.39 0 00-2.74-1.05l-3.31.06c-8 .12-15.967.186-23.9.2h-22.61a8.743 8.743 0 00-2.17.12 3.069 3.069 0 00-2 1.67 6.5 6.5 0 00-.29 2.78v10.21c0 4.46.08 8.92.11 13.38v8.99a1.13 1.13 0 002.25 0l.07.05z"></path><path fill="#393633" d="M5.163 53.629l1.4.18-.52-.16a2.6 2.6 0 001.39.21h62.72a5.32 5.32 0 004.37-3.17c.33-.74 1-1.7.47-2.48a1.33 1.33 0 00-1.15-.6H1.513a1.34 1.34 0 00-1.25 1 2.09 2.09 0 00.31 1.39 7.629 7.629 0 001.24 2.16 4.94 4.94 0 003.49 1.84c1.44.06 1.44-2.19 0-2.25a3.2 3.2 0 01-2.29-1.73 7.637 7.637 0 01-.35-.83c-.08-.17-.15-.34-.22-.51-.07-.17-.08-.37 0-.07l-.12.87.06-.1-.68.52c-.16.06-.24 0-.06 0h72.16c.19 0 .09.06-.07 0l-.67-.52v.1l-.11-.87c.07-.31 0 0 0 .07s-.14.33-.22.49c-.102.279-.22.553-.35.82a3.22 3.22 0 01-2.23 1.66h-56.09a54.566 54.566 0 00-8.77.26h-.12a.88.88 0 00-.01 1.72z"></path><path fill="#F66604" d="M64 22.009c6.075 0 11-4.925 11-11 0-6.076-4.925-11-11-11-6.076 0-11 4.924-11 11 0 6.075 4.924 11 11 11z"></path><path fill="#fff" d="M58.444 8.954l-2.056 2.055 6.19 6.19 2.056-2.056-6.19-6.19z"></path><path fill="#fff" d="M60.545 15.136l2.056 2.055 9.04-9.04-2.056-2.055-9.04 9.04z"></path></svg>