<svg viewBox="0 0 64 59" xmlns="http://www.w3.org/2000/svg"><g fill="none"><path fill="#BFBFBF" d="M14.8 9.9c0-3-2.4-5.4-5.4-5.4-3 0-5.4 2.4-5.4 5.4m53.6 41c0-6.8-5.6-12.4-12.4-12.4-6.8 0-12.4 5.6-12.4 12.4"></path><path fill="#383632" d="M29.4.3C13.3.3.1 13.4.1 29.6c0 16.2 13.1 29.3 29.3 29.3 16.1 0 29.3-13.1 29.3-29.3C58.7 13.4 45.6.3 29.4.3zM2.5 30.7h11.3c.1 4.5 1.1 8.7 2.7 12.7H6.2C4 39.7 2.7 35.3 2.5 30.7zm28.1-17.2V3.7c3.4 2.8 6.2 6.1 8.3 9.8h-8.3zm9.4 2.3c1.8 3.9 2.8 8.2 2.9 12.7H30.6V15.8H40zm-11.7-2.3H20c2.1-3.7 4.8-7.1 8.3-9.8v9.8zm0 2.3v12.7H16c.1-4.5 1.1-8.8 2.9-12.7h9.4zM13.7 28.5H2.5c.2-4.6 1.5-8.9 3.8-12.7h10.2c-1.7 3.9-2.6 8.2-2.8 12.7zm2.3 2.2h12.3v12.7h-9.4c-1.8-3.9-2.8-8.2-2.9-12.7zm12.3 15v9.8c-3.4-2.8-6.2-6.1-8.3-9.8h8.3zm2.3 0h8.3c-2.1 3.7-4.8 7.1-8.3 9.8v-9.8zm0-2.3V30.7h12.3c-.1 4.5-1.1 8.8-2.9 12.7h-9.4zm14.5-12.7h11.3c-.2 4.6-1.5 8.9-3.8 12.7H42.4c1.7-3.9 2.6-8.2 2.7-12.7zm0-2.2C45 24 44 19.8 42.4 15.8h10.2c2.2 3.7 3.6 8.1 3.8 12.7H45.1zm6-15h-9.8c-2-4-4.9-7.7-8.4-10.7 7.5 1 14 5 18.2 10.7zM25.9 2.8c-3.5 3-6.4 6.7-8.4 10.7H7.7C12 7.8 18.5 3.8 25.9 2.8zM7.7 45.7h9.8c2 4 4.9 7.7 8.4 10.7-7.4-1-13.9-5-18.2-10.7zM33 56.4c3.5-3 6.4-6.7 8.4-10.7h9.8c-4.3 5.7-10.8 9.7-18.2 10.7z"></path><circle cx="51.2" cy="13.6" r="12.5" fill="#F66604"></circle><path fill="#BFBFBF" d="M22.9 10.6c-7.1 0-12.9 5.8-12.9 12.9 0 7.1 12.9 20.1 12.9 20.1s12.9-13 12.9-20.1c0-7.1-5.8-12.9-12.9-12.9zm0 15.7c-2.5 0-4.6-2-4.6-4.6 0-2.5 2-4.6 4.6-4.6 2.6 0 4.6 2 4.6 4.6 0 2.6-2.1 4.6-4.6 4.6z"></path></g></svg>